<svg xmlns="http://www.w3.org/2000/svg" xmlns:xlink="http://www.w3.org/1999/xlink" width="328" height="200" aria-labelledby="cyberjaya-svg" role="img" version="1.1" viewBox="0 0 328 200"><title id="cyberjaya-svg">Cyberjaya</title><desc>Created with Sketch.</desc><g id="4-illustration/about_us/kuala_lumpur" fill="none" fill-rule="evenodd" stroke="none" stroke-width="1"><g id="about-us-bridge" transform="translate(19.000000, 23.500000)"><polygon id="Rectangle" fill="#84AAAF" fill-rule="nonzero" points="220.184 76.436 220.528 76.436 220.528 161.414 220.184 161.414" transform="translate(220.355588, 118.925083) rotate(-59.820000) translate(-220.355588, -118.925083)"/><polygon id="Rectangle" fill="#84AAAF" fill-rule="nonzero" points="219.248 75.822 219.592 75.822 219.592 160.582 219.248 160.582" transform="translate(219.420106, 118.202162) rotate(-58.660000) translate(-219.420106, -118.202162)"/><polygon id="Rectangle" fill="#84AAAF" fill-rule="nonzero" points="218.322 75.22 218.666 75.22 218.666 159.799 218.322 159.799" transform="translate(218.493883, 117.509319) rotate(-57.490000) translate(-218.493883, -117.509319)"/><polygon id="Rectangle" fill="#84AAAF" fill-rule="nonzero" points="217.364 74.541 217.708 74.541 217.708 158.975 217.364 158.975" transform="translate(217.535883, 116.758048) rotate(-56.330000) translate(-217.535883, -116.758048)"/><polygon id="Rectangle" fill="#84AAAF" fill-rule="nonzero" points="216.449 73.905 216.793 73.905 216.793 158.231 216.449 158.231" transform="translate(216.620762, 116.067784) rotate(-55.150000) translate(-216.620762, -116.067784)"/><polygon id="Rectangle" fill="#84AAAF" fill-rule="nonzero" points="215.498 73.214 215.842 73.214 215.842 157.458 215.498 157.458" transform="translate(215.670026, 115.335871) rotate(-53.980000) translate(-215.670026, -115.335871)"/><polygon id="Rectangle" fill="#84AAAF" fill-rule="nonzero" points="214.568 72.523 214.912 72.523 214.912 156.731 214.568 156.731" transform="translate(214.740078, 114.627116) rotate(-52.800000) translate(-214.740078, -114.627116)"/><polygon id="Rectangle" fill="#84AAAF" fill-rule="nonzero" points="213.637 71.812 213.981 71.812 213.981 156.012 213.637 156.012" transform="translate(213.808611, 113.912038) rotate(-51.620000) translate(-213.808611, -113.912038)"/><polygon id="Rectangle" fill="#84AAAF" fill-rule="nonzero" points="212.706 71.092 213.05 71.092 213.05 155.328 212.706 155.328" transform="translate(212.877592, 113.209896) rotate(-50.440000) translate(-212.877592, -113.209896)"/><polygon id="Rectangle" fill="#84AAAF" fill-rule="nonzero" points="211.756 70.319 212.1 70.319 212.1 154.618 211.756 154.618" transform="translate(211.927733, 112.468670) rotate(-49.270000) translate(-211.927733, -112.468670)"/><polygon id="Rectangle" fill="#84AAAF" fill-rule="nonzero" points="210.832 69.58 211.176 69.58 211.176 153.987 210.832 153.987" transform="translate(211.004348, 111.783678) rotate(-48.090000) translate(-211.004348, -111.783678)"/><polygon id="Rectangle" fill="#84AAAF" fill-rule="nonzero" points="209.9 68.79 210.244 68.79 210.244 153.333 209.9 153.333" transform="translate(210.072228, 111.061198) rotate(-46.920000) translate(-210.072228, -111.061198)"/><polygon id="Rectangle" fill="#84AAAF" fill-rule="nonzero" points="208.956 67.966 209.3 67.966 209.3 152.681 208.956 152.681" transform="translate(209.127875, 110.323551) rotate(-45.760000) translate(-209.127875, -110.323551)"/><polygon id="Rectangle" fill="#84AAAF" fill-rule="nonzero" points="208.015 67.141 208.359 67.141 208.359 152.064 208.015 152.064" transform="translate(208.186760, 109.602068) rotate(-44.600000) translate(-208.186760, -109.602068)"/><polygon id="Rectangle" fill="#84AAAF" fill-rule="nonzero" points="207.088 66.323 207.432 66.323 207.432 151.49 207.088 151.49" transform="translate(207.259665, 108.906522) rotate(-43.440000) translate(-207.259665, -108.906522)"/><polygon id="Rectangle" fill="#84AAAF" fill-rule="nonzero" points="206.146 65.481 206.49 65.481 206.49 150.92 206.146 150.92" transform="translate(206.317640, 108.200798) rotate(-42.290000) translate(-206.317640, -108.200798)"/><polygon id="Rectangle" fill="#84AAAF" fill-rule="nonzero" points="205.215 64.604 205.559 64.604 205.559 150.359 205.215 150.359" transform="translate(205.386719, 107.481445) rotate(-41.150000) translate(-205.386719, -107.481445)"/><polygon id="Rectangle" fill="#84AAAF" fill-rule="nonzero" points="204.289 63.717 204.632 63.717 204.632 149.816 204.289 149.816" transform="translate(204.460474, 106.766652) rotate(-40.020000) translate(-204.460474, -106.766652)"/><polygon id="Rectangle" fill="#84AAAF" fill-rule="nonzero" points="203.348 62.806 203.692 62.806 203.692 149.285 203.348 149.285" transform="translate(203.520136, 106.045627) rotate(-38.900000) translate(-203.520136, -106.045627)"/><polygon id="Rectangle" fill="#84AAAF" fill-rule="nonzero" points="202.064 62.492 202.407 62.492 202.407 149.214 202.064 149.214" transform="translate(202.235520, 105.853167) rotate(-37.673593) translate(-202.235520, -105.853167)"/><polygon id="Rectangle" fill="#84AAAF" fill-rule="nonzero" points="201.477 60.932 201.821 60.932 201.821 148.262 201.477 148.262" transform="translate(201.649074, 104.596951) rotate(-36.690000) translate(-201.649074, -104.596951)"/><polygon id="Rectangle" fill="#84AAAF" fill-rule="nonzero" points="199.696 60.252 200.038 60.252 200.038 147.732 199.696 147.732" transform="translate(199.866878, 103.992353) rotate(-35.604534) translate(-199.866878, -103.992353)"/><polygon id="Rectangle" fill="#84AAAF" fill-rule="nonzero" points="199.609 59.031 199.953 59.031 199.953 147.348 199.609 147.348" transform="translate(199.781118, 103.189400) rotate(-34.520000) translate(-199.781118, -103.189400)"/><polygon id="Rectangle" fill="#84AAAF" fill-rule="nonzero" points="198.667 58.027 199.01 58.027 199.01 146.878 198.667 146.878" transform="translate(198.838492, 102.452194) rotate(-33.460000) translate(-198.838492, -102.452194)"/><polygon id="Rectangle" fill="#84AAAF" fill-rule="nonzero" points="197.727 57.016 198.071 57.016 198.071 146.437 197.727 146.437" transform="translate(197.899286, 101.726500) rotate(-32.410000) translate(-197.899286, -101.726500)"/><polygon id="Rectangle" fill="#84AAAF" fill-rule="nonzero" points="196.799 56.011 197.143 56.011 197.143 146.029 196.799 146.029" transform="translate(196.970575, 101.020441) rotate(-31.370000) translate(-196.970575, -101.020441)"/><polygon id="Rectangle" fill="#84AAAF" fill-rule="nonzero" points="195.851 54.971 196.195 54.971 196.195 145.613 195.851 145.613" transform="translate(196.022579, 100.291767) rotate(-30.350000) translate(-196.022579, -100.291767)"/><polygon id="Rectangle" fill="#84AAAF" fill-rule="nonzero" points="194.919 53.93 195.263 53.93 195.263 145.224 194.919 145.224" transform="translate(195.091059, 99.577006) rotate(-29.340000) translate(-195.091059, -99.577006)"/><polygon id="Rectangle" fill="#84AAAF" fill-rule="nonzero" points="232.076 48.213 232.42 48.213 232.42 170.421 232.076 170.421" transform="translate(232.247652, 109.316970) rotate(-60.150000) translate(-232.247652, -109.316970)"/><polygon id="Rectangle" fill="#84AAAF" fill-rule="nonzero" points="230.849 47.722 231.192 47.722 231.192 169.26 230.849 169.26" transform="translate(231.020538, 108.490941) rotate(-59.090000) translate(-231.020538, -108.490941)"/><polygon id="Rectangle" fill="#84AAAF" fill-rule="nonzero" points="229.614 47.207 229.958 47.207 229.958 168.112 229.614 168.112" transform="translate(229.786377, 107.659578) rotate(-58.020000) translate(-229.786377, -107.659578)"/><polygon id="Rectangle" fill="#84AAAF" fill-rule="nonzero" points="228.364 46.622 228.707 46.622 228.707 166.947 228.364 166.947" transform="translate(228.535464, 106.784520) rotate(-56.950000) translate(-228.535464, -106.784520)"/><polygon id="Rectangle" fill="#84AAAF" fill-rule="nonzero" points="227.096 45.322 227.441 45.322 227.441 165.255 227.096 165.255" transform="translate(227.268416, 105.288416) rotate(-55.992508) translate(-227.268416, -105.288416)"/><polygon id="Rectangle" fill="#84AAAF" fill-rule="nonzero" points="225.897 45.474 226.241 45.474 226.241 164.759 225.897 164.759" transform="translate(226.068591, 105.116518) rotate(-54.760000) translate(-226.068591, -105.116518)"/><polygon id="Rectangle" fill="#84AAAF" fill-rule="nonzero" points="224.643 44.837 224.987 44.837 224.987 163.669 224.643 163.669" transform="translate(224.815350, 104.253004) rotate(-53.660000) translate(-224.815350, -104.253004)"/><polygon id="Rectangle" fill="#84AAAF" fill-rule="nonzero" points="223.414 44.224 223.758 44.224 223.758 162.64 223.414 162.64" transform="translate(223.586173, 103.431742) rotate(-52.540000) translate(-223.586173, -103.431742)"/><polygon id="Rectangle" fill="#84AAAF" fill-rule="nonzero" points="222.172 43.559 222.516 43.559 222.516 161.613 222.172 161.613" transform="translate(222.343946, 102.585927) rotate(-51.420000) translate(-222.343946, -102.585927)"/><polygon id="Rectangle" fill="#84AAAF" fill-rule="nonzero" points="220.925 42.836 221.269 42.836 221.269 160.574 220.925 160.574" transform="translate(221.096794, 101.705150) rotate(-50.300000) translate(-221.096794, -101.705150)"/><polygon id="Rectangle" fill="#84AAAF" fill-rule="nonzero" points="219.694 42.166 220.038 42.166 220.038 159.623 219.694 159.623" transform="translate(219.866102, 100.894009) rotate(-49.160000) translate(-219.866102, -100.894009)"/><polygon id="Rectangle" fill="#84AAAF" fill-rule="nonzero" points="218.461 41.44 218.804 41.44 218.804 158.671 218.461 158.671" transform="translate(218.632523, 100.055815) rotate(-48.020000) translate(-218.632523, -100.055815)"/><polygon id="Rectangle" fill="#84AAAF" fill-rule="nonzero" points="217.219 40.676 217.563 40.676 217.563 157.725 217.219 157.725" transform="translate(217.391263, 99.200536) rotate(-46.880000) translate(-217.391263, -99.200536)"/><polygon id="Rectangle" fill="#84AAAF" fill-rule="nonzero" points="215.965 39.881 216.309 39.881 216.309 156.795 215.965 156.795" transform="translate(216.136658, 98.338007) rotate(-45.740000) translate(-216.136658, -98.338007)"/><polygon id="Rectangle" fill="#84AAAF" fill-rule="nonzero" points="214.733 39.082 215.077 39.082 215.077 155.915 214.733 155.915" transform="translate(214.905433, 97.498748) rotate(-44.590000) translate(-214.905433, -97.498748)"/><polygon id="Rectangle" fill="#84AAAF" fill-rule="nonzero" points="213.493 38.266 213.837 38.266 213.837 155.054 213.493 155.054" transform="translate(213.664730, 96.660158) rotate(-43.440000) translate(-213.664730, -96.660158)"/><polygon id="Rectangle" fill="#84AAAF" fill-rule="nonzero" points="212.253 37.422 212.597 37.422 212.597 154.218 212.253 154.218" transform="translate(212.424745, 95.820140) rotate(-42.290000) translate(-212.424745, -95.820140)"/><polygon id="Rectangle" fill="#84AAAF" fill-rule="nonzero" points="211.018 36.555 211.362 36.555 211.362 153.405 211.018 153.405" transform="translate(211.189649, 94.980041) rotate(-41.140000) translate(-211.189649, -94.980041)"/><polygon id="Rectangle" fill="#84AAAF" fill-rule="nonzero" points="209.772 35.635 210.116 35.635 210.116 152.586 209.772 152.586" transform="translate(209.943688, 94.110547) rotate(-40.000000) translate(-209.943688, -94.110547)"/><polygon id="Rectangle" fill="#84AAAF" fill-rule="nonzero" points="208.539 34.739 208.883 34.739 208.883 151.834 208.539 151.834" transform="translate(208.711075, 93.286804) rotate(-38.850000) translate(-208.711075, -93.286804)"/><polygon id="Rectangle" fill="#84AAAF" fill-rule="nonzero" points="207.297 33.794 207.641 33.794 207.641 151.079 207.297 151.079" transform="translate(207.468673, 92.436677) rotate(-37.710000) translate(-207.468673, -92.436677)"/><polygon id="Rectangle" fill="#84AAAF" fill-rule="nonzero" points="206.051 32.807 206.395 32.807 206.395 150.336 206.051 150.336" transform="translate(206.222656, 91.571353) rotate(-36.580000) translate(-206.222656, -91.571353)"/><polygon id="Rectangle" fill="#84AAAF" fill-rule="nonzero" points="204.813 31.848 205.157 31.848 205.157 149.658 204.813 149.658" transform="translate(204.985266, 90.753213) rotate(-35.440000) translate(-204.985266, -90.753213)"/><polygon id="Rectangle" fill="#84AAAF" fill-rule="nonzero" points="203.575 30.813 203.919 30.813 203.919 148.958 203.575 148.958" transform="translate(203.746582, 89.885756) rotate(-34.320000) translate(-203.746582, -89.885756)"/><polygon id="Rectangle" fill="#84AAAF" fill-rule="nonzero" points="202.335 29.783 202.679 29.783 202.679 148.308 202.335 148.308" transform="translate(202.506999, 89.045432) rotate(-33.200000) translate(-202.506999, -89.045432)"/><polygon id="Rectangle" fill="#84AAAF" fill-rule="nonzero" points="201.094 28.723 201.438 28.723 201.438 147.664 201.094 147.664" transform="translate(201.265965, 88.193318) rotate(-32.090000) translate(-201.265965, -88.193318)"/><path id="Path" fill="#84AAAF" fill-rule="nonzero" d="M174.289593,50.9230769 C174.289593,50.9230769 212.054299,55.3936652 242.162896,140.660633 L236.868778,140.090498 C235.60859,132.724882 233.55125,125.518125 230.733032,118.597285 C226.41629,108.642534 216.542986,90.6606335 211.891403,84.8778281 C207.239819,79.0950226 194.38914,56.8687783 174.479638,52.4072398 L174.289593,50.9230769 Z"/><path id="Path" fill="#84AAAF" fill-rule="nonzero" d="M174.479638,52.4072398 C174.479638,52.4072398 182.461538,56.0271493 191.547511,75.5656109 C200.633484,95.1040724 208.80543,139.366516 208.80543,139.366516 L204.524887,139.366516 C204.524887,139.366516 203.239819,119.457014 198.850679,104.361991 C194.461538,89.2669683 192.714932,81.7375566 189.013575,74.1628959 C185.312217,66.5882353 182.696833,60.361991 175.085973,53.8461538 L174.479638,52.4072398 Z"/><polygon id="Path" fill="#84AAAF" fill-rule="nonzero" points="201.765 138.968 168.552 31.629 169.294 46.045 184.127 139.52 192.851 138.968 186.552 107.538 196.742 138.968"/><polygon id="Rectangle" fill="#84AAAF" fill-rule="nonzero" points="155.351 120.017 193.858 120.017 193.858 120.361 155.351 120.361" transform="translate(174.604426, 120.188733) rotate(-71.670000) translate(-174.604426, -120.188733)"/><polygon id="Rectangle" fill="#84AAAF" fill-rule="nonzero" points="152.017 119.505 192.985 119.505 192.985 119.849 152.017 119.849" transform="translate(172.500840, 119.676764) rotate(-67.240000) translate(-172.500840, -119.676764)"/><polygon id="Rectangle" fill="#84AAAF" fill-rule="nonzero" points="148.56 118.97 192.207 118.97 192.207 119.314 148.56 119.314" transform="translate(170.383324, 119.141770) rotate(-63.360000) translate(-170.383324, -119.141770)"/><polygon id="Rectangle" fill="#84AAAF" fill-rule="nonzero" points="144.258 119.077 190.522 119.077 190.522 119.419 144.258 119.419" transform="translate(167.390317, 119.247692) rotate(-59.826480) translate(-167.390317, -119.247692)"/><polygon id="Rectangle" fill="#84AAAF" fill-rule="nonzero" points="141.411 117.915 190.932 117.915 190.932 118.258 141.411 118.258" transform="translate(166.171350, 118.086479) rotate(-56.840000) translate(-166.171350, -118.086479)"/><polygon id="Rectangle" fill="#84AAAF" fill-rule="nonzero" points="137.755 117.413 190.406 117.413 190.406 117.757 137.755 117.757" transform="translate(164.080664, 117.585058) rotate(-54.180000) translate(-164.080664, -117.585058)"/><polygon id="Rectangle" fill="#84AAAF" fill-rule="nonzero" points="134.016 116.892 189.899 116.892 189.899 117.236 134.016 117.236" transform="translate(161.957343, 117.064376) rotate(-51.820000) translate(-161.957343, -117.064376)"/><polygon id="Rectangle" fill="#84AAAF" fill-rule="nonzero" points="130.255 116.377 189.459 116.377 189.459 116.721 130.255 116.721" transform="translate(159.857259, 116.549419) rotate(-49.670000) translate(-159.857259, -116.549419)"/><polygon id="Rectangle" fill="#84AAAF" fill-rule="nonzero" points="126.452 115.848 189.049 115.848 189.049 116.192 126.452 116.192" transform="translate(157.750787, 116.020152) rotate(-47.770000) translate(-157.750787, -116.020152)"/><polygon id="Rectangle" fill="#84AAAF" fill-rule="nonzero" points="122.613 115.319 188.667 115.319 188.667 115.663 122.613 115.663" transform="translate(155.640241, 115.491428) rotate(-46.110000) translate(-155.640241, -115.491428)"/><polygon id="Rectangle" fill="#84AAAF" fill-rule="nonzero" points="118.761 114.82 188.318 114.82 188.318 115.163 118.761 115.163" transform="translate(153.539262, 114.991513) rotate(-44.600000) translate(-153.539262, -114.991513)"/><polygon id="Rectangle" fill="#84AAAF" fill-rule="nonzero" points="114.599 115.092 187.531 115.092 187.531 115.435 114.599 115.435" transform="translate(151.065430, 115.263348) rotate(-42.969086) translate(-151.065430, -115.263348)"/><polygon id="Rectangle" fill="#84AAAF" fill-rule="nonzero" points="110.979 113.778 187.676 113.778 187.676 114.122 110.979 114.122" transform="translate(149.327226, 113.950032) rotate(-41.930000) translate(-149.327226, -113.950032)"/><polygon id="Rectangle" fill="#84AAAF" fill-rule="nonzero" points="107.061 113.257 187.378 113.257 187.378 113.601 107.061 113.601" transform="translate(147.219344, 113.428953) rotate(-40.800000) translate(-147.219344, -113.428953)"/><polygon id="Rectangle" fill="#84AAAF" fill-rule="nonzero" points="103.133 112.722 187.096 112.722 187.096 113.066 103.133 113.066" transform="translate(145.114461, 112.894204) rotate(-39.770000) translate(-145.114461, -112.894204)"/><polygon id="Rectangle" fill="#84AAAF" fill-rule="nonzero" points="99.187 112.201 186.825 112.201 186.825 112.545 99.187 112.545" transform="translate(143.006202, 112.372946) rotate(-38.820000) translate(-143.006202, -112.372946)"/><polygon id="Rectangle" fill="#84AAAF" fill-rule="nonzero" points="95.23 111.676 186.57 111.676 186.57 112.02 95.23 112.02" transform="translate(140.900038, 111.848059) rotate(-37.980000) translate(-140.900038, -111.848059)"/><polygon id="Rectangle" fill="#84AAAF" fill-rule="nonzero" points="91.269 111.163 186.328 111.163 186.328 111.507 91.269 111.507" transform="translate(138.798187, 111.335322) rotate(-37.140000) translate(-138.798187, -111.335322)"/><polygon id="Rectangle" fill="#84AAAF" fill-rule="nonzero" points="87.293 110.653 186.08 110.653 186.08 110.997 87.293 110.997" transform="translate(136.686341, 110.824847) rotate(-36.420000) translate(-136.686341, -110.824847)"/><polygon id="Rectangle" fill="#84AAAF" fill-rule="nonzero" points="83.316 110.119 185.859 110.119 185.859 110.463 83.316 110.463" transform="translate(134.587757, 110.290897) rotate(-35.740000) translate(-134.587757, -110.290897)"/><polygon id="Rectangle" fill="#84AAAF" fill-rule="nonzero" points="79.32 109.597 185.618 109.597 185.618 109.941 79.32 109.941" transform="translate(132.469072, 109.768860) rotate(-35.060000) translate(-132.469072, -109.768860)"/><polygon id="Rectangle" fill="#84AAAF" fill-rule="nonzero" points="75.336 109.077 185.417 109.077 185.417 109.421 75.336 109.421" transform="translate(130.376329, 109.249115) rotate(-34.500000) translate(-130.376329, -109.249115)"/><polygon id="Rectangle" fill="#84AAAF" fill-rule="nonzero" points="71.328 108.569 185.192 108.569 185.192 108.913 71.328 108.913" transform="translate(128.259823, 108.741167) rotate(-33.890000) translate(-128.259823, -108.741167)"/><polygon id="Rectangle" fill="#84AAAF" fill-rule="nonzero" points="67.32 108.047 184.985 108.047 184.985 108.391 67.32 108.391" transform="translate(126.152314, 108.219268) rotate(-33.410000) translate(-126.152314, -108.219268)"/><polygon id="Rectangle" fill="#84AAAF" fill-rule="nonzero" points="63.308 107.534 184.774 107.534 184.774 107.877 63.308 107.877" transform="translate(124.041227, 107.705499) rotate(-32.880000) translate(-124.041227, -107.705499)"/><polygon id="Rectangle" fill="#84AAAF" fill-rule="nonzero" points="59.308 107.012 184.593 107.012 184.593 107.356 59.308 107.356" transform="translate(121.950844, 107.183976) rotate(-32.430000) translate(-121.950844, -107.183976)"/><polygon id="Rectangle" fill="#84AAAF" fill-rule="nonzero" points="55.29 106.479 184.394 106.479 184.394 106.823 55.29 106.823" transform="translate(119.841700, 106.650730) rotate(-32.030000) translate(-119.841700, -106.650730)"/><polygon id="Rectangle" fill="#84AAAF" fill-rule="nonzero" points="54.225 105.105 183.963 105.105 183.963 105.449 54.225 105.449" transform="translate(119.093921, 105.277167) rotate(-31.630000) translate(-119.093921, -105.277167)"/><polygon id="Rectangle" fill="#84AAAF" fill-rule="nonzero" points="50.402 104.562 183.76 104.562 183.76 104.906 50.402 104.906" transform="translate(117.080778, 104.733810) rotate(-31.220000) translate(-117.080778, -104.733810)"/><polygon id="Rectangle" fill="#84AAAF" fill-rule="nonzero" points="46.153 104.102 183.601 104.102 183.601 104.446 46.153 104.446" transform="translate(114.876613, 104.273822) rotate(-30.850000) translate(-114.876613, -104.273822)"/><polygon id="Rectangle" fill="#84AAAF" fill-rule="nonzero" points="43.297 103.279 183.342 103.279 183.342 103.623 43.297 103.623" transform="translate(113.319269, 103.451130) rotate(-30.520000) translate(-113.319269, -103.451130)"/><polygon id="Rectangle" fill="#84AAAF" fill-rule="nonzero" points="38.505 102.971 183.22 102.971 183.22 103.315 38.505 103.315" transform="translate(110.862946, 103.142637) rotate(-30.200000) translate(-110.862946, -103.142637)"/><polygon id="Rectangle" fill="#84AAAF" fill-rule="nonzero" points="34.468 102.462 183.047 102.462 183.047 102.806 34.468 102.806" transform="translate(108.757479, 102.634072) rotate(-29.870000) translate(-108.757479, -102.634072)"/><polygon id="Rectangle" fill="#84AAAF" fill-rule="nonzero" points="30.644 101.891 182.861 101.891 182.861 102.234 30.644 102.234" transform="translate(106.752513, 102.062553) rotate(-29.570000) translate(-106.752513, -102.062553)"/><polygon id="Rectangle" fill="#84AAAF" fill-rule="nonzero" points="26.039 101.538 182.726 101.538 182.726 101.882 26.039 101.882" transform="translate(104.382566, 101.710438) rotate(-29.290000) translate(-104.382566, -101.710438)"/><polygon id="Rectangle" fill="#84AAAF" fill-rule="nonzero" points="22.562 100.876 182.517 100.876 182.517 101.22 22.562 101.22" transform="translate(102.539647, 101.048053) rotate(-29.040000) translate(-102.539647, -101.048053)"/><polygon id="Rectangle" fill="#84AAAF" fill-rule="nonzero" points="18.746 100.301 182.347 100.301 182.347 100.645 18.746 100.645" transform="translate(100.546463, 100.472828) rotate(-28.770000) translate(-100.546463, -100.472828)"/><polygon id="Rectangle" fill="#84AAAF" fill-rule="nonzero" points="15.167 99.666 182.145 99.666 182.145 100.01 15.167 100.01" transform="translate(98.655975, 99.837655) rotate(-28.520000) translate(-98.655975, -99.837655)"/><polygon id="Rectangle" fill="#84AAAF" fill-rule="nonzero" points="11.114 99.174 181.983 99.174 181.983 99.518 11.114 99.518" transform="translate(96.548729, 99.346041) rotate(-28.290000) translate(-96.548729, -99.346041)"/><polygon id="Rectangle" fill="#84AAAF" fill-rule="nonzero" points="8.395 98.32 181.744 98.32 181.744 98.664 8.395 98.664" transform="translate(95.069410, 98.491839) rotate(-28.080000) translate(-95.069410, -98.491839)"/><polygon id="Rectangle" fill="#84AAAF" fill-rule="nonzero" points="3.429 98.031 181.638 98.031 181.638 98.375 3.429 98.375" transform="translate(92.533570, 98.203004) rotate(-27.870000) translate(-92.533570, -98.203004)"/><polygon id="Rectangle" fill="#84AAAF" fill-rule="nonzero" points="1.543 96.984 181.352 96.984 181.352 97.328 1.543 97.328" transform="translate(91.447500, 97.156307) rotate(-27.670000) translate(-91.447500, -97.156307)"/><polygon id="Rectangle" fill="#84AAAF" fill-rule="nonzero" points="181.031 53.701 181.203 53.701 181.203 59.42 181.031 59.42" transform="translate(181.116551, 56.560442) rotate(-5.810000) translate(-181.116551, -56.560442)"/><path id="Path" fill="#84AAAF" fill-rule="nonzero" d="M181.61991,59.8823529 C181.61991,59.8823529 181.393665,56.9954751 181.167421,53.719457 L181.339367,53.719457 C181.565611,56.9954751 181.791855,59.8552036 181.791855,59.8823529 L181.61991,59.8823529 Z"/><path id="Path" fill="#84AAAF" fill-rule="nonzero" d="M181.900452,60.361991 C181.900452,60.361991 181.719457,57.239819 181.628959,53.9095023 L181.800905,53.9095023 C181.891403,57.239819 182.063348,60.3257919 182.072398,60.3529412 L181.900452,60.361991 Z"/><path id="Path" fill="#84AAAF" fill-rule="nonzero" d="M182.226244,60.8325792 C182.226244,60.8325792 182.126697,57.6289593 182.180995,54.361991 L182.352941,54.361991 C182.298643,57.6289593 182.39819,60.7963801 182.39819,60.8235294 L182.226244,60.8325792 Z"/><path id="Path" fill="#84AAAF" fill-rule="nonzero" d="M182.533937,61.3031674 C182.533937,61.3031674 182.533937,57.8642534 182.760181,54.6244344 L182.932127,54.6244344 C182.687783,57.8642534 182.696833,61.2579186 182.696833,61.2941176 L182.533937,61.3031674 Z"/><path id="Path" fill="#84AAAF" fill-rule="nonzero" d="M183.004525,61.7737557 L182.80543,61.7737557 C182.876993,59.4511614 183.073355,57.1340931 183.393665,54.8325792 L183.565611,54.8325792 C183.253246,57.134461 183.065942,59.4515887 183.004525,61.7737557 L183.004525,61.7737557 Z"/><path id="Path" fill="#84AAAF" fill-rule="nonzero" d="M183.303167,62.2533937 L183.131222,62.2533937 C183.287754,59.8619232 183.632715,57.4865294 184.162896,55.1493213 L184.325792,55.1493213 C183.799979,57.4870173 183.458059,59.8623039 183.303167,62.2533937 L183.303167,62.2533937 Z"/><path id="Path" fill="#84AAAF" fill-rule="nonzero" d="M183.61086,62.7330317 L183.438914,62.7330317 C183.670915,60.3291967 184.181116,57.9604088 184.959276,55.6742081 L185.113122,55.7375566 C184.347946,58.0046586 183.843932,60.3516614 183.61086,62.7330317 L183.61086,62.7330317 Z"/><path id="Path" fill="#84AAAF" fill-rule="nonzero" d="M183.909502,63.2036199 L183.737557,63.2036199 C183.737557,63.2036199 184.352941,58.678733 185.873303,56.2171946 L186.0181,56.3076923 C184.524887,58.7330317 183.918552,63.158371 183.909502,63.2036199 Z"/><path id="Path" fill="#84AAAF" fill-rule="nonzero" d="M184.217195,63.6832579 L184.045249,63.6832579 C184.045249,63.4841629 184.950226,58.8235294 186.959276,56.841629 L187.076923,56.959276 C185.085973,58.8778281 184.226244,63.638009 184.217195,63.6832579 Z"/><path id="Path" fill="#84AAAF" fill-rule="nonzero" d="M184.515837,64.1628959 L184.352941,64.1628959 C184.578392,63.2342738 184.881106,62.326132 185.257919,61.4479638 C186.072398,59.5294118 187.067873,58.2624434 188.117647,57.6742081 L188.199095,57.8280543 C185.665158,59.1674208 184.524887,64.1085973 184.515837,64.1628959 Z"/><path id="Path" fill="#84AAAF" fill-rule="nonzero" d="M184.81448,64.6425339 L184.651584,64.5972851 C184.934935,63.6560447 185.313989,62.7463162 185.782805,61.8823529 C186.78733,60.0723982 188.0181,58.9321267 189.339367,58.6515837 L189.339367,58.8235294 C186.289593,59.5022624 184.832579,64.5882353 184.81448,64.6425339 Z"/><path id="Path" fill="#84AAAF" fill-rule="nonzero" d="M185.122172,65.158371 L184.959276,65.0950226 C184.959276,65.0950226 186.497738,60.6696833 189.647059,59.9819005 C191.520362,59.5656109 193.574661,60.5067873 195.746606,62.7873303 L195.628959,62.9049774 C193.493213,60.6696833 191.493213,59.7466063 189.683258,60.1900452 C186.633484,60.7873303 185.131222,65.0769231 185.122172,65.158371 Z"/><path id="Path" fill="#84AAAF" fill-rule="nonzero" d="M185.420814,65.5927602 L185.257919,65.5294118 C185.573351,64.8289742 185.968088,64.1670308 186.434389,63.5565611 C187.307202,62.3361102 188.593597,61.4742258 190.054299,61.1312217 C192.217195,60.7239819 194.579186,61.8461538 197.113122,64.4886878 L196.995475,64.6063348 C194.506787,62.0090498 192.190045,60.8959276 190.081448,61.2941176 C186.977376,61.8733032 185.429864,65.5565611 185.420814,65.5927602 Z"/><path id="Path" fill="#84AAAF" fill-rule="nonzero" d="M198.307692,66.3438914 C195.475113,63.3484163 192.760181,62.0542986 190.38914,62.4434389 C187.312217,62.9230769 185.737557,66.0633484 185.719457,66.0633484 L185.565611,65.9909502 C185.565611,65.9909502 187.19457,62.7420814 190.361991,62.2443439 C192.823529,61.8642534 195.538462,63.2036199 198.425339,66.2171946 L198.307692,66.3438914 Z"/><path id="Path" fill="#84AAAF" fill-rule="nonzero" d="M199.647059,68.081448 C196.41629,64.7239819 193.411765,63.1764706 190.687783,63.5022624 C188.766574,63.8039299 187.066632,64.9141631 186.0181,66.5520362 L185.873303,66.4705882 C186.950914,64.7948746 188.692681,63.6589395 190.660633,63.3484163 C193.438914,63.0226244 196.506787,64.5791855 199.764706,67.9819005 L199.647059,68.081448 Z"/><path id="Path" fill="#84AAAF" fill-rule="nonzero" d="M200.977376,69.8280543 C197.357466,66.0633484 194.00905,64.2714932 190.968326,64.5158371 C189.136417,64.6744844 187.452225,65.5853902 186.316742,67.0316742 L186.180995,66.9411765 C187.337831,65.4468646 189.067334,64.504991 190.950226,64.3438914 C194.045249,64.0995475 197.457014,65.9004525 201.104072,69.7104072 L200.977376,69.8280543 Z"/><path id="Path" fill="#84AAAF" fill-rule="nonzero" d="M202.316742,71.5656109 C198.325792,67.4027149 194.606335,65.3574661 191.239819,65.4751131 C189.489641,65.5152249 187.82672,66.2474308 186.615385,67.5113122 L186.488688,67.4027149 C187.728915,66.1036053 189.435133,65.3514367 191.230769,65.3122172 C194.642534,65.1764706 198.41629,67.239819 202.443439,71.4479638 L202.316742,71.5656109 Z"/><path id="Path" fill="#84AAAF" fill-rule="nonzero" d="M203.61991,73.3031674 C199.248869,68.7782805 195.167421,66.4162896 191.493213,66.39819 L191.438914,66.39819 C189.785553,66.3512941 188.173466,66.9187486 186.914027,67.9909502 L186.79638,67.8733032 C188.094127,66.7568065 189.764141,66.1689096 191.475113,66.2262443 L191.475113,66.2262443 C195.20362,66.2262443 199.330317,68.5882353 203.737557,73.1855204 L203.61991,73.3031674 Z"/><path id="Path" fill="#84AAAF" fill-rule="nonzero" d="M204.995475,75.0497738 C201.719457,71.6289593 196.769231,67.5022624 191.782805,67.2669683 C190.180563,67.1312341 188.580968,67.5567263 187.257919,68.4705882 L187.149321,68.3438914 C188.511541,67.3788077 190.175296,66.935568 191.837104,67.0950226 C196.832579,67.3303167 201.809955,71.4932127 205.122172,74.9321267 L204.995475,75.0497738 Z"/><path id="Path" fill="#84AAAF" fill-rule="nonzero" d="M206.334842,76.7873303 C202.886878,73.1674208 197.674208,68.7692308 192.38914,68.1447964 C190.718932,67.8478443 188.997399,68.1321048 187.511312,68.9502262 L187.411765,68.8144796 C187.484163,68.760181 189.176471,67.5927602 192.38914,67.9728507 C195.339367,68.3167421 200.171946,70.1085973 206.461538,76.6696833 L206.334842,76.7873303 Z"/><path id="Path" fill="#84AAAF" fill-rule="nonzero" d="M207.674208,78.5248869 C204.054299,74.7511312 198.570136,70.0271493 192.977376,69.0135747 C189.638009,68.39819 187.819005,69.4208145 187.800905,69.4298643 L187.719457,69.2850679 C187.791855,69.2850679 189.59276,68.2262443 192.986425,68.841629 C196.099548,69.4027149 201.20362,71.5565611 207.800905,78.4072398 L207.674208,78.5248869 Z"/><path id="Path" fill="#84AAAF" fill-rule="nonzero" d="M209.049774,80.2714932 C205.257919,76.3076923 199.502262,71.2941176 193.60181,69.8823529 C190.081448,69.040724 188.171946,69.8823529 188.171946,69.8823529 L188.099548,69.719457 C188.180995,69.719457 190.081448,68.8144796 193.656109,69.719457 C199.60181,71.1312217 205.420814,76.1809955 209.21267,80.1628959 L209.049774,80.2714932 Z"/><path id="Path" fill="#84AAAF" fill-rule="nonzero" d="M210.352941,82.0090498 C206.38914,77.8642534 200.39819,72.5520362 194.153846,70.7511312 C190.452489,69.6742081 188.41629,70.3710407 188.39819,70.3800905 L188.334842,70.2171946 C188.425339,70.2171946 190.434389,69.4932127 194.180995,70.5791855 C197.628959,71.5746606 203.230769,74.3529412 210.470588,81.8914027 L210.352941,82.0090498 Z"/><path id="Path" fill="#84AAAF" fill-rule="nonzero" d="M211.692308,83.7466063 C207.547511,79.4208145 201.239819,73.7918552 194.723982,71.6108597 C190.841629,70.3076923 188.714932,70.8506787 188.696833,70.8597285 L188.696833,70.6968326 C188.778281,70.6968326 190.895928,70.1266968 194.823529,71.4479638 C198.443439,72.6696833 204.325792,75.7647059 211.855204,83.6289593 L211.692308,83.7466063 Z"/><path id="Path" fill="#84AAAF" fill-rule="nonzero" d="M213.031674,85.4932127 C208.714932,80.9683258 202.171946,75.0678733 195.312217,72.479638 C191.248869,70.9411765 188.977376,71.3303167 188.977376,71.3303167 L188.977376,71.1674208 C189.067873,71.1674208 191.285068,70.7692308 195.393665,72.3257919 C202.244344,74.9140271 208.841629,80.8506787 213.167421,85.3755656 L213.031674,85.4932127 Z"/><path id="Path" fill="#84AAAF" fill-rule="nonzero" d="M214.371041,87.2307692 C209.846154,82.5429864 203.040724,76.3710407 195.927602,73.3574661 C191.674208,71.5475113 189.312217,71.8099548 189.285068,71.8099548 L189.285068,71.638009 C189.285068,71.638009 191.701357,71.4027149 195.99095,73.1945701 C203.140271,76.1809955 210.00905,82.4072398 214.506787,87.1131222 L214.371041,87.2307692 Z"/><path id="Path" fill="#84AAAF" fill-rule="nonzero" d="M215.701357,88.9683258 C211.040724,84.0995475 203.936652,77.5837104 196.497738,74.2171946 C192.063348,72.2081448 189.60181,72.280543 189.58371,72.280543 L189.58371,72.1085973 C189.58371,72.1085973 192.108597,72.0361991 196.579186,74.0633484 C204.027149,77.438914 211.167421,84.0180995 215.837104,88.8506787 L215.701357,88.9683258 Z"/><rect id="Rectangle" width="296.833" height="3.023" x="0" y="138.009" fill="#84AAAF" fill-rule="nonzero"/><path id="Path" fill="#85ACB0" fill-rule="nonzero" d="M242.533937,171.429864 C241.293385,171.313394 240.144175,170.727459 239.321267,169.791855 C238.705882,169.239819 238.126697,168.723982 237.59276,168.723982 C237.230769,168.723982 237.022624,168.959276 236.552036,169.628959 C235.929227,170.709606 234.793956,171.393504 233.547511,171.438914 C232.264975,171.35376 231.091684,170.687118 230.361991,169.628959 C229.819005,169.022624 229.457014,168.723982 229.058824,168.723982 C228.153846,168.723982 227.004525,169.547511 225.710407,171.104072 L224.316742,169.954751 C226.00905,167.909502 227.565611,166.914027 229.058824,166.914027 C230.123657,167.011393 231.090966,167.574552 231.701357,168.452489 C232.361991,169.176471 232.80543,169.61991 233.511312,169.61991 C234.217195,169.61991 234.524887,169.239819 235.058824,168.524887 C235.564786,167.599505 236.504868,166.99322 237.556561,166.914027 C238.691897,167.035618 239.73929,167.581943 240.488688,168.443439 C241.005562,169.0521 241.714008,169.466956 242.497738,169.61991 C242.850679,169.61991 243.900452,169.61991 244.81448,167.466063 L246.479638,168.171946 C245.628959,170.334842 244.289593,171.429864 242.533937,171.429864 Z"/><path id="Path" fill="#85ACB0" fill-rule="nonzero" d="M64.0045249,173.669683 C62.9581097,173.571153 61.9879499,173.079605 61.2895928,172.294118 C60.8190045,171.868778 60.3846154,171.470588 60.0045249,171.470588 C59.8054299,171.470588 59.6696833,171.615385 59.2986425,172.113122 C58.7724063,173.04077 57.8033241,173.629753 56.7375566,173.669683 C55.6560878,173.606136 54.6599262,173.061568 54.0226244,172.18552 C53.5882353,171.696833 53.3529412,171.470588 53.1176471,171.470588 C52.4479638,171.470588 51.5339367,172.131222 50.5384615,173.343891 L49.1538462,172.18552 C50.5656109,170.484163 51.8687783,169.660633 53.1266968,169.660633 C54.0401544,169.735054 54.8728905,170.212799 55.39819,170.963801 C55.9140271,171.533937 56.2307692,171.868778 56.7647059,171.868778 C57.2986425,171.868778 57.4343891,171.642534 57.8778281,171.045249 C58.3059237,170.248668 59.1116366,169.72632 60.0135747,169.660633 C60.9778755,169.760509 61.8694077,170.219196 62.5113122,170.945701 C63.0361991,171.41629 63.5248869,171.850679 64.0135747,171.850679 C64.2669683,171.850679 65.0361991,171.850679 65.7330317,170.20362 L67.39819,170.909502 C66.4298643,173.235294 65.0271493,173.669683 64.0045249,173.669683 Z"/><path id="Path" fill="#85ACB0" fill-rule="nonzero" d="M51.8823529,166.466063 C50.0723982,166.466063 48.7149321,165.262443 47.520362,164.20362 C46.6153846,163.361991 45.7104072,162.565611 44.8054299,162.565611 C44.0723982,162.565611 43.6561086,163.081448 42.9954751,163.986425 C42.2171946,165.036199 41.1855204,166.466063 38.9954751,166.466063 C36.8054299,166.466063 35.6742081,165.126697 34.6968326,164.058824 C33.8642534,163.153846 33.3122172,162.565611 32.5248869,162.565611 C31.0950226,162.565611 29.3665158,163.769231 27.4027149,166.140271 L26.0090498,164.9819 C28.3710407,162.140271 30.5339367,160.755656 32.5248869,160.755656 C34.1538462,160.755656 35.158371,161.859729 36.0452489,162.837104 C36.9321267,163.81448 37.6923077,164.647059 38.9954751,164.647059 C40.2986425,164.647059 40.7420814,163.986425 41.5384615,162.900452 C42.3348416,161.81448 43.0950226,160.755656 44.7692308,160.755656 C46.4434389,160.755656 47.5746606,161.823529 48.7239819,162.855204 C49.8733032,163.886878 50.7511312,164.665158 51.8823529,164.665158 C53.4208145,164.665158 54.5972851,163.570136 55.5746606,161.316742 L57.2488688,162.022624 C56,164.963801 54.199095,166.466063 51.8823529,166.466063 Z"/><path id="Path" fill="#84AAAF" fill-rule="nonzero" d="M156.036199,151.447964 C155.502502,151.4484 154.995818,151.213272 154.651584,150.80543 L146.425339,141.031674 L149.19457,138.696833 L156.036199,146.841629 L162.877828,138.696833 L165.647059,141.031674 L157.466063,150.80543 C157.111726,151.225605 156.585657,151.462003 156.036199,151.447964 L156.036199,151.447964 Z"/><polygon id="Rectangle" fill="#84AAAF" fill-rule="nonzero" points="152.882 150.929 159.109 150.929 159.109 154.549 152.882 154.549" transform="translate(155.995415, 152.738568) rotate(-89.360000) translate(-155.995415, -152.738568)"/><path id="Path" fill="#84AAAF" fill-rule="nonzero" d="M187.710407,151.447964 C187.17671,151.4484 186.670026,151.213272 186.325792,150.80543 L178.099548,141.031674 L180.868778,138.696833 L187.710407,146.841629 L194.552036,138.696833 L197.321267,141.031674 L189.140271,150.80543 C188.785934,151.225605 188.259866,151.462003 187.710407,151.447964 L187.710407,151.447964 Z"/><polygon id="Rectangle" fill="#84AAAF" fill-rule="nonzero" points="184.557 150.931 190.784 150.931 190.784 154.55 184.557 154.55" transform="translate(187.670478, 152.740544) rotate(-89.360000) translate(-187.670478, -152.740544)"/><path id="Path" fill="#84AAAF" fill-rule="nonzero" d="M280.923077,151.447964 C280.38938,151.4484 279.882696,151.213272 279.538462,150.80543 L271.312217,141.031674 L274.081448,138.696833 L280.923077,146.841629 L287.764706,138.696833 L290.533937,141.031674 L282.352941,150.80543 C281.998604,151.225605 281.472535,151.462003 280.923077,151.447964 L280.923077,151.447964 Z"/><polygon id="Rectangle" fill="#84AAAF" fill-rule="nonzero" points="277.761 150.927 283.988 150.927 283.988 154.547 277.761 154.547" transform="translate(280.874548, 152.737309) rotate(-89.360000) translate(-280.874548, -152.737309)"/><path id="Path" fill="#84AAAF" fill-rule="nonzero" d="M15.7647059,151.447964 C15.2310089,151.4484 14.724325,151.213272 14.3800905,150.80543 L6.15384615,141.031674 L8.92307692,138.696833 L15.7647059,146.841629 L22.6063348,138.696833 L25.3393665,141.031674 L17.1945701,150.80543 C16.8402331,151.225605 16.3141643,151.462003 15.7647059,151.447964 L15.7647059,151.447964 Z"/><path id="Path" stroke="#84AAAF" stroke-linejoin="round" stroke-width="4" d="M15.7647059,149.638009 L15.6923077,155.855204"/><path id="Path" fill="#84AAAF" fill-rule="nonzero" d="M47.438914,151.447964 C46.9052171,151.4484 46.3985331,151.213272 46.0542986,150.80543 L37.8280543,141.031674 L40.5972851,138.696833 L47.438914,146.841629 L54.280543,138.696833 L57.0135747,141.031674 L48.8687783,150.80543 C48.5144413,151.225605 47.9883724,151.462003 47.438914,151.447964 L47.438914,151.447964 Z"/><polygon id="Rectangle" fill="#84AAAF" fill-rule="nonzero" points="44.294 150.931 50.52 150.931 50.52 154.551 44.294 154.551" transform="translate(47.406831, 152.740842) rotate(-89.360000) translate(-47.406831, -152.740842)"/><rect id="Rectangle" width="296.833" height="1.81" x="0" y="154.498" fill="#84AAAF" fill-rule="nonzero"/></g></g></svg>