<svg xmlns="http://www.w3.org/2000/svg" xmlns:xlink="http://www.w3.org/1999/xlink" width="328" height="200" aria-labelledby="dubai-svg" role="img" version="1.1" viewBox="0 0 328 200"><title id="dubai-svg">Dubai</title><desc>Created with Sketch.</desc><g id="4-illustration/about_us/dubai" fill="none" fill-rule="evenodd" stroke="none" stroke-width="1"><g id="icons/about-us/dubai" stroke="#85ACB0" stroke-width="2" transform="translate(48.000000, 3.000000)"><path id="Path-16" fill="#E7EEEF" d="M95.071867,175.69863 L95.071867,73.6010274 L87.0604587,73.6010274 L87.0604587,70.5071606 L95.071867,68.6508406 L95.071867,25.9554795 C116.024781,41.631071 130.198811,59.9880137 137.593957,81.0263076 C144.989103,102.064601 148.481256,116.090131 148.070414,123.102895 L144.989103,175.69863 L95.071867,175.69863 Z"/><polyline id="Path-17" fill="#E7EEEF" points="109.266 71.877 133.426 69.31 142.099 62.892 113.603 65.459 103.072 66.743"/><polyline id="Path-18" points="95.066 25.729 95.066 0 96.067 0 96.067 26.954"/><polyline id="Path-19" points="106.074 76.868 106.074 107.815 142.099 107.815"/><polyline id="Path-19-Copy" points="106.074 111.808 106.074 142.755 142.099 142.755"/><polyline id="Path-19-Copy-2" points="106.074 144.752 106.074 170.707 142.099 170.707"/><path id="Path-20" d="M105.573315,37.9349315 L105.573315,64.8886986"/><path id="Path-21" d="M0.264185239,176.197774 L231.007183,176.197774"/><polyline id="Path-37" points="17.012 176.198 17.012 172.829 28.95 172.829 28.95 167.837 31.464 167.837 31.464 159.726 40.889 159.726 40.889 165.965 44.031 165.965 44.031 174.7"/><polyline id="Path-38" points="43.03 164.717 43.03 156.332 49.961 156.332 49.961 149.743 57.521 154.535 57.521 158.129 60.042 158.129"/><polyline id="Path-39" points="60.042 175.699 60.042 136.765 68.448 136.765 68.448 145.417 72.05 145.417 72.05 175.699"/><polyline id="Path-40" points="73.051 151.457 79.305 151.457 79.305 161.402 83.058 161.402 83.058 142.755 88.061 142.755 88.061 175.699"/><polyline id="Path-41" points="155.108 174.7 155.108 154.735 161.112 154.735 161.112 174.7"/><polyline id="Path-42" points="158.11 155.931 158.11 142.959 161.347 142.959 161.347 124.427 163.29 124.427 163.29 109.602 165.232 109.602 165.232 63.89 165.232 109.602 169.117 109.602 169.117 130.605 169.117 168.286 169.117 175.699"/><polyline id="Path-43" points="169.117 159.6 178.553 159.6 178.553 131.736 181.069 131.736 181.069 126.783 187.988 126.783 187.988 131.117 191.133 131.117 191.133 175.699"/><polyline id="Path-44" points="195.136 174.7 195.136 143.026 196.303 142.417 196.887 138.762 200.973 138.762 200.973 142.417 202.14 142.417 202.14 174.7"/><polyline id="Path-45" points="206.143 175.066 206.143 163.686 214.196 163.686 214.196 156.731 219.152 156.731 219.152 175.699"/></g></g></svg>