<svg xmlns="http://www.w3.org/2000/svg" xmlns:xlink="http://www.w3.org/1999/xlink" width="18" height="16" aria-labelledby="hamburger-meni-icon-title" role="img" version="1.1" viewBox="0 0 18 16"><title id="hamburger-menu-icon-title">Hamburger menu</title><desc>Created with Sketch.</desc><g id="Symbols" fill="none" fill-rule="evenodd" stroke="none" stroke-width="1"><g id="recurrent/mobile/header" transform="translate(-283.000000, -20.000000)"><g id="header"><g id="icons-and-illustration/icon/hamburger_menu" transform="translate(280.000000, 16.000000)"><rect id="Rectangle" width="24" height="24" x="0" y="0"/><g id="icon" fill="#FFF" fill-rule="evenodd" stroke-width="1" transform="translate(3.000000, 4.000000)"><path id="Path" fill-rule="nonzero" d="M1,9 L17,9 C17.5522847,9 18,8.55228475 18,8 C18,7.44771525 17.5522847,7 17,7 L1,7 C0.44771525,7 0,7.44771525 0,8 C0,8.55228475 0.44771525,9 1,9 Z"/><path id="Path" fill-rule="nonzero" d="M1,2 L17,2 C17.5522847,2 18,1.55228475 18,1 C18,0.44771525 17.5522847,0 17,0 L1,0 C0.44771525,0 0,0.44771525 0,1 C0,1.55228475 0.44771525,2 1,2 Z"/><path id="Path" fill-rule="nonzero" d="M1,16 L17,16 C17.5522847,16 18,15.5522847 18,15 C18,14.4477153 17.5522847,14 17,14 L1,14 C0.44771525,14 0,14.4477153 0,15 C0,15.5522847 0.44771525,16 1,16 Z"/></g></g></g></g></g></svg>