<svg xmlns="http://www.w3.org/2000/svg" xmlns:xlink="http://www.w3.org/1999/xlink" width="502" height="275" aria-labelledby="make-smarter-icon-title" role="img" version="1.1" viewBox="0 0 502 275"><title id="make-smarter-icon-title">Make smarter</title><desc>Created with sketchtool.</desc><defs><rect id="path-1" width="502" height="275" x="0" y="0"/><rect id="path-3" width="327" height="204" x="0" y="0"/><rect id="path-5" width="587.2" height="563.2" x="0" y="0"/><linearGradient id="linearGradient-7" x1="50%" x2="50%" y1="0%" y2="114.855%"><stop offset="0%" stop-color="#FFF"/><stop offset="100%" stop-color="#FFF" stop-opacity="0"/></linearGradient><linearGradient id="linearGradient-8" x1="50%" x2="50%" y1="100%" y2="0%"><stop offset="0%" stop-color="#FFF" stop-opacity="0"/><stop offset="100%" stop-color="#85ACB0" stop-opacity=".16"/></linearGradient><rect id="path-9" width="184.8" height="46.4" x="0" y="0" rx="3.2"/><rect id="path-11" width="32" height="189.595" x="6.4" y="7.584" rx="3.2"/><rect id="path-13" width="46.429" height="233.554" x="9.286" y="9.342" rx="3.881"/><filter id="filter-15" width="109%" height="109.8%" x="-4.5%" y="-4.9%" filterUnits="objectBoundingBox"><feOffset dx="0" dy="3" in="SourceAlpha" result="shadowOffsetOuter1"/><feGaussianBlur in="shadowOffsetOuter1" result="shadowBlurOuter1" stdDeviation="2"/><feColorMatrix in="shadowBlurOuter1" result="shadowMatrixOuter1" type="matrix" values="0 0 0 0 0 0 0 0 0 0 0 0 0 0 0 0 0 0 0.24 0"/><feMerge><feMergeNode in="shadowMatrixOuter1"/><feMergeNode in="SourceGraphic"/></feMerge></filter><rect id="path-16" width="300" height="274.038" x="0" y="0" rx="2.885"/></defs><g id="Trade" fill="none" fill-rule="evenodd" stroke="none" stroke-width="1"><g id="Platform---DTrader" transform="translate(-730.000000, -1862.000000)"><g id="Make-smarter-trading-decision" transform="translate(0.000000, 1782.000000)"><g id="1-IMG"><g transform="translate(208.000000, 80.000000) translate(522.000000, 0.000000)"><mask id="mask-2" fill="#fff"><use xlink:href="#path-1"/></mask><g id="chart-section" mask="url(#mask-2)"><g transform="translate(212.000000, 38.000000)"><mask id="mask-4" fill="#fff"><use xlink:href="#path-3"/></mask><use id="Mask" fill="#FFF" fill-rule="evenodd" stroke="none" xlink:href="#path-3"/><g id="chart-section" fill="none" fill-rule="evenodd" stroke="none" stroke-width="1" mask="url(#mask-4)"><g transform="translate(-91.200000, -77.600000)"><g id="chart" fill-rule="evenodd" stroke-width="1"><mask id="mask-6" fill="#fff"><use xlink:href="#path-5"/></mask><use id="mask-chart-area" fill="#FFF" fill-rule="nonzero" xlink:href="#path-5"/><g id="grids" mask="url(#mask-6)"><g transform="translate(-196.000000, 0.000000)"><g id="y-axis" transform="translate(196.000000, 40.000000)"><polygon id="horizontal" fill="#F2F3F4" fill-rule="nonzero" points="0 .8 555.2 .8 555.2 0 0 0"/><polygon id="horizontal" fill="#F2F3F4" fill-rule="nonzero" points="0 69.6 555.2 69.6 555.2 68.8 0 68.8"/><polygon id="horizontal" fill="#F2F3F4" fill-rule="nonzero" points="0 138.4 555.2 138.4 555.2 137.6 0 137.6"/><polygon id="horizontal" fill="#F2F3F4" fill-rule="nonzero" points="0 207.2 555.2 207.2 555.2 206.4 0 206.4"/></g><g id="x-axis"><g id="components/chart/grid/x-axis" transform="translate(531.200000, 0.000000)"><g id="Group"><polygon id="vertical" fill="#F2F3F4" fill-rule="nonzero" points="15.2 529 16 529 16 0 15.2 0"/><rect id="shade" width="31.2" height="16" x="0" y="0" fill="url(#linearGradient-7)" fill-rule="nonzero"/><text id="time" fill="#333" font-family="IBM Plex Sans, sans-serif" font-size="8" font-weight="normal" linespacing="11.2"><tspan x=".186" y="545.6">00:00:00</tspan></text></g></g><g id="components/chart/grid/x-axis" transform="translate(455.200000, 0.000000)"><g id="Group"><polygon id="vertical" fill="#F2F3F4" fill-rule="nonzero" points="15.2 529 16 529 16 0 15.2 0"/><rect id="shade" width="31.2" height="16" x="0" y="0" fill="url(#linearGradient-7)" fill-rule="nonzero"/><text id="time" fill="#333" font-family="IBM Plex Sans, sans-serif" font-size="8" font-weight="normal" linespacing="11.2"><tspan x=".186" y="545.6">00:00:00</tspan></text></g></g><g id="components/chart/grid/x-axis" transform="translate(379.200000, 0.000000)"><g id="Group"><polygon id="vertical" fill="#F2F3F4" fill-rule="nonzero" points="15.2 529 16 529 16 0 15.2 0"/><rect id="shade" width="31.2" height="16" x="0" y="0" fill="url(#linearGradient-7)" fill-rule="nonzero"/><text id="time" fill="#333" font-family="IBM Plex Sans, sans-serif" font-size="8" font-weight="normal" linespacing="11.2"><tspan x=".186" y="545.6">00:00:00</tspan></text></g></g><g id="components/chart/grid/x-axis" transform="translate(303.200000, 0.000000)"><g id="Group"><polygon id="vertical" fill="#F2F3F4" fill-rule="nonzero" points="15.2 529 16 529 16 0 15.2 0"/><rect id="shade" width="31.2" height="16" x="0" y="0" fill="url(#linearGradient-7)" fill-rule="nonzero"/><text id="time" fill="#333" font-family="IBM Plex Sans, sans-serif" font-size="8" font-weight="normal" linespacing="11.2"><tspan x=".186" y="545.6">00:00:00</tspan></text></g></g><g id="components/chart/grid/x-axis" transform="translate(227.200000, 0.000000)"><g id="Group"><polygon id="vertical" fill="#F2F3F4" fill-rule="nonzero" points="15.2 529 16 529 16 0 15.2 0"/><rect id="shade" width="31.2" height="16" x="0" y="0" fill="url(#linearGradient-7)" fill-rule="nonzero"/><text id="time" fill="#333" font-family="IBM Plex Sans, sans-serif" font-size="8" font-weight="normal" linespacing="11.2"><tspan x=".186" y="545.6">00:00:00</tspan></text></g></g><g id="components/chart/grid/x-axis" transform="translate(151.200000, 0.000000)"><g id="Group"><polygon id="vertical" fill="#F2F3F4" fill-rule="nonzero" points="15.2 529 16 529 16 0 15.2 0"/><rect id="shade" width="31.2" height="16" x="0" y="0" fill="url(#linearGradient-7)" fill-rule="nonzero"/><text id="time" fill="#333" font-family="IBM Plex Sans, sans-serif" font-size="8" font-weight="normal" linespacing="11.2"><tspan x=".186" y="545.6">00:00:00</tspan></text></g></g><g id="components/chart/grid/x-axis" transform="translate(75.200000, 0.000000)"><g id="Group"><polygon id="vertical" fill="#F2F3F4" fill-rule="nonzero" points="15.2 529 16 529 16 0 15.2 0"/><rect id="shade" width="31.2" height="16" x="0" y="0" fill="url(#linearGradient-7)" fill-rule="nonzero"/><text id="time" fill="#333" font-family="IBM Plex Sans, sans-serif" font-size="8" font-weight="normal" linespacing="11.2"><tspan x=".186" y="545.6">00:00:00</tspan></text></g></g></g></g></g><g id="chart-style" mask="url(#mask-6)"><g transform="translate(-170.400000, 100.800000)"><polygon id="chart-shade" fill="url(#linearGradient-8)" fill-rule="evenodd" stroke="none" points="0 79.363 1.201 90.701 4.804 113.376 7.206 124.714 10.809 113.376 13.211 113.376 15.613 102.039 16.814 113.376 18.015 102.039 19.216 113.376 21.618 113.376 22.819 158.727 25.221 147.389 28.824 136.052 30.025 147.389 34.829 147.389 38.432 158.727 39.633 147.389 40.834 158.727 42.035 147.389 48.04 124.714 49.241 90.701 52.844 79.363 60.05 90.701 62.452 102.039 64.854 102.039 66.055 90.701 67.256 102.039 68.457 90.701 69.658 79.363 73.261 56.688 75.663 45.351 78.065 45.351 79.266 34.013 81.668 45.351 84.07 45.351 86.472 56.688 87.673 113.376 88.874 102.039 90.075 34.013 91.276 79.363 92.477 34.013 93.678 56.688 94.879 90.701 97.281 90.701 98.482 124.714 99.683 90.701 100.884 102.039 104.487 102.039 106.889 102.039 108.09 90.701 109.291 102.039 110.492 68.026 111.693 45.351 114.095 45.351 117.698 56.688 122.502 56.688 129.708 56.688 132.11 56.688 133.311 45.351 134.512 56.688 138.115 45.351 140.517 56.688 142.919 45.351 146.522 45.351 147.723 56.688 148.924 102.039 150.125 113.376 151.326 124.714 153.728 147.389 159.733 170.065 168.14 170.065 170.542 170.065 177.748 170.065 178.949 158.727 180.15 181.402 181.351 226.753 182.552 170.065 183.753 192.74 184.954 215.415 186.155 226.753 187.356 260.766 189.758 249.428 190.959 226.753 193.361 215.415 194.562 192.74 195.763 170.065 198.165 170.065 200.567 181.402 202.969 181.402 205.371 204.077 207.773 170.065 208.974 158.727 210.175 147.389 211.376 113.376 212.577 102.039 214.979 113.376 217.381 113.376 219.783 113.376 220.984 102.039 225.788 68.026 228.19 68.026 230.592 56.688 232.994 56.688 246.204 56.688 253.41 22.675 255.812 22.675 258.214 22.675 260.616 34.013 266.621 22.675 284.636 22.675 288.239 34.013 290.641 34.013 297.847 34.013 299.048 45.351 303.852 45.351 307.455 22.675 308.656 11.338 313.46 0 318.264 22.675 319.465 34.013 321.867 22.675 325.47 45.351 326.671 34.013 327.872 56.688 329.073 45.351 331.475 45.351 332.676 34.013 336.279 45.351 337.48 79.363 341.083 90.701 342.284 113.376 344.686 102.039 347.088 102.039 348.289 113.376 349.49 124.714 351.892 124.714 356.696 136.052 357.897 158.727 359.098 181.402 361.5 181.402 362.701 147.389 363.902 79.363 365.103 90.701 366.304 113.376 367.505 124.714 369.907 124.714 377.113 124.714 380.716 124.714 383.118 113.376 384.319 90.701 386.721 102.039 390.324 90.701 391.525 113.376 393.927 124.714 395.128 113.376 397.53 124.714 407.138 124.714 411.942 90.701 413.143 113.376 415.545 102.039 427.555 90.701 428.756 102.039 434.761 113.376 435.962 124.714 437.163 113.376 438.364 102.039 440.766 102.039 441.967 79.363 443.168 102.039 445.57 90.701 449.173 90.701 451.575 90.701 458.781 79.363 463.585 68.026 475.2 81.6 495.2 102 495.2 400.8 0 403.2"/><polyline id="chart-border" fill="none" stroke="#85ACB0" stroke-linecap="round" stroke-linejoin="round" stroke-width=".8" points="0 79.374 1.201 90.713 4.804 113.391 7.206 124.73 10.809 113.391 13.211 113.391 15.613 102.052 16.814 113.391 18.015 102.052 19.216 113.391 21.618 113.391 22.819 158.748 25.221 147.409 28.824 136.07 30.025 147.409 34.829 147.409 38.432 158.748 39.633 147.409 40.834 158.748 42.035 147.409 48.04 124.73 49.241 90.713 52.844 79.374 60.05 90.713 62.452 102.052 64.854 102.052 66.055 90.713 67.256 102.052 68.457 90.713 69.658 79.374 73.261 56.696 75.663 45.357 78.065 45.357 79.266 34.017 81.668 45.357 84.07 45.357 86.472 56.696 87.673 113.391 88.874 102.052 90.075 34.017 91.276 79.374 92.477 34.017 93.678 56.696 94.879 90.713 97.281 90.713 98.482 124.73 99.683 90.713 100.884 102.052 104.487 102.052 106.889 102.052 108.09 90.713 109.291 102.052 110.492 68.035 111.693 45.357 114.095 45.357 117.698 56.696 122.502 56.696 129.708 56.696 132.11 56.696 133.311 45.357 134.512 56.696 138.115 45.357 140.517 56.696 142.919 45.357 146.522 45.357 147.723 56.696 148.924 102.052 150.125 113.391 151.326 124.73 153.728 147.409 159.733 170.087 168.14 170.087 170.542 170.087 177.748 170.087 178.949 158.748 180.15 181.426 181.351 226.783 182.552 170.087 183.753 192.765 184.954 215.443 186.155 226.783 187.356 260.8 189.758 249.461 190.959 226.783 193.361 215.443 194.562 192.765 195.763 170.087 198.165 170.087 200.567 181.426 202.969 181.426 205.371 204.104 207.773 170.087 208.974 158.748 210.175 147.409 211.376 113.391 212.577 102.052 214.979 113.391 217.381 113.391 219.783 113.391 220.984 102.052 225.788 68.035 228.19 68.035 230.592 56.696 232.994 56.696 246.204 56.696 253.41 22.678 255.812 22.678 258.214 22.678 260.616 34.017 266.621 22.678 284.636 22.678 288.239 34.017 290.641 34.017 297.847 34.017 299.048 45.357 303.852 45.357 307.455 22.678 308.656 11.339 313.46 0 318.264 22.678 319.465 34.017 321.867 22.678 325.47 45.357 326.671 34.017 327.872 56.696 329.073 45.357 331.475 45.357 332.676 34.017 336.279 45.357 337.48 79.374 341.083 90.713 342.284 113.391 344.686 102.052 347.088 102.052 348.289 113.391 349.49 124.73 351.892 124.73 356.696 136.07 357.897 158.748 359.098 181.426 361.5 181.426 362.701 147.409 363.902 79.374 365.103 90.713 366.304 113.391 367.505 124.73 369.907 124.73 377.113 124.73 380.716 124.73 383.118 113.391 384.319 90.713 386.721 102.052 390.324 90.713 391.525 113.391 393.927 124.73 395.128 113.391 397.53 124.73 407.138 124.73 411.942 90.713 413.143 113.391 415.545 102.052 427.555 90.713 428.756 102.052 434.761 113.391 435.962 124.73 437.163 113.391 438.364 102.052 440.766 102.052 441.967 79.374 443.168 102.052 445.57 90.713 449.173 90.713 451.575 90.713 458.781 79.374 463.585 68.035 475.2 80.8 495.2 102"/></g></g></g><g id="components/chart/current-tick/normal" fill-rule="evenodd" stroke-width="1" transform="translate(327.200000, 192.800000)"><g id="current-tick"><path id="line-currenttick-vector" stroke="#FF444F" stroke-dasharray="3.2" stroke-width=".8" d="M1.6,9.6 L262.423256,9.6"/><g id="Group" transform="translate(224.823256, 0.000000)"><polygon id="bg" fill="#FF444F" fill-rule="nonzero" points="8 0 37.6 0 37.6 19.2 8 19.2 0 9.6"/><text id="label" fill="#FFF" font-family="IBM Plex Sans, sans-serif" font-size="8" font-weight="bold" linespacing="11.2"><tspan x="14.306" y="11">0.00</tspan></text></g></g></g><g id="start-time" fill-rule="evenodd" stroke-width="1" transform="translate(298.171429, 19.600000)"><path id="Path" fill-rule="nonzero" stroke="#1C5AE3" stroke-dasharray="2.4" stroke-width=".8" d="M6.62857143,510 L6.62857143,0.4"/><g id="atoms/icons/16px/system/chart/ic-start-time" transform="translate(1.828571, 150.000000)"><path id="Combined-Shape" fill="#1C5AE3" d="M4.79934553,0 C7.2283521,0.0021591624 9.19711358,1.96609928 9.2,4.38987755 C9.2,6.74612245 5.12396252,12.3546122 4.95118251,12.5923265 L4.95118251,12.5923265 L4.79934553,12.8 L4.64881749,12.5923265 C4.47472854,12.3572245 0.4,6.74089796 0.4,4.38987755 C0.402885058,1.96660859 2.37085012,0.00287884946 4.79934553,0 Z M4.8,2 C3.6954305,2 2.8,2.8954305 2.8,4 C2.8,5.1045695 3.6954305,6 4.8,6 C5.9045695,6 6.8,5.1045695 6.8,4 C6.8,2.8954305 5.9045695,2 4.8,2 Z"/><circle id="Oval" cx="4.8" cy="4" r="2" fill="#FFF"/></g><g id="tick-1" transform="translate(21.028571, 176.400000)"><circle id="bg" cx="4.8" cy="5.6" r="4.8" fill="#FFF" fill-rule="nonzero" stroke="#1C5AE3" stroke-width=".8"/><text id="label" fill="#333" font-family="IBM Plex Sans, sans-serif" font-size="8" font-weight="normal" linespacing="11.2"><tspan x="2.554" y="7.4">4</tspan></text></g><text id="1/4" fill="#1C5AE3" font-family="IBM Plex Sans, sans-serif" font-size="8" font-weight="normal"><tspan x=".488" y="145">1/4</tspan></text></g><g id="components/dropdown/market/open"><rect id="bg" width="197.6" height="59.2" x="0" y="0" fill="#F2F3F4" fill-rule="nonzero" rx="3.2"/><g id="Market" fill-rule="evenodd" stroke-width="1" transform="translate(6.400000, 6.400000)"><mask id="mask-10" fill="#fff"><use xlink:href="#path-9"/></mask><use id="bg" fill="#FFF" xlink:href="#path-9"/><g id="icons/dropdown/normal/normal-normal" fill="#333" mask="url(#mask-10)"><g id="Path-12"><path d="M10.5309309,4.10402397 C10.6943939,3.9554212 10.9473733,3.96746784 11.095976,4.13093088 C11.2445788,4.29439393 11.2325322,4.54737326 11.0690691,4.69597603 L6.66906912,8.69597603 C6.51650063,8.83467466 6.28349937,8.83467466 6.13093088,8.69597603 L1.73093088,4.69597603 C1.56746784,4.54737326 1.5554212,4.29439393 1.70402397,4.13093088 C1.85262674,3.96746784 2.10560607,3.9554212 2.26906912,4.10402397 L6.4,7.85941568 L10.5309309,4.10402397 Z" transform="translate(159.200000, 16.800000)"/></g></g><g id="Choose-market" mask="url(#mask-10)"><g transform="translate(44.800000, 6.400000)"><g id="icons/contract-status/ic-profit" fill-rule="evenodd" stroke-width="1" transform="translate(88.800000, 20.000000)"><g id="Group"><rect id="container" width="12.8" height="12.8" x="0" y="0" fill="#DEDEDE" fill-rule="nonzero" opacity="0"/><g id="icon-status" fill="#4BB4B3" fill-rule="nonzero" transform="translate(1.600000, 3.200000)"><polygon id="Rectangle-15" points="4.8 0 9.6 6.4 0 6.4"/></g></g></g><text id="Current-Price" font-family="IBM Plex Sans, sans-serif" font-size="9.6" font-weight="normal" linespacing="14.4"><tspan x="0" y="28.2" fill="#333">84.54 - 0.14 (0.16%)</tspan></text><text id="asset" fill-opacity=".8" font-family="IBM Plex Sans, sans-serif" font-size="12.8" font-weight="bold" linespacing="19.2"><tspan x="0" y="12" fill="#000">AUD/JPY</tspan></text></g></g><g id="icons/flags/pair" mask="url(#mask-10)"><g id="Group"><g transform="translate(6.400000, 10.400000) translate(0.000000, 3.200000)"><g id="Group-2"><g id="icons/flags/ic-australia-aud"><path id="BG-blue" fill="#0D47A1" fill-rule="nonzero" d="M17.7620625,0 L1.4379375,0 C0.6437625,0 0,0.653980952 0,1.4607619 L0,11.3182857 C0,12.1250286 0.6437625,12.7790476 1.4379375,12.7790476 L17.7620625,12.7790476 C18.5562,12.7790476 19.2,12.1250667 19.2,11.3182857 L19.2,1.4607619 C19.2,0.653980952 18.5562375,0 17.7620625,0 Z"/><path id="Shape" fill="#FFF" fill-rule="nonzero" d="M0.33105,6.38948571 L0.906075,6.38948571 L3.97245,4.34857143 L3.97245,6.38948571 L5.627625,6.38948571 L5.627625,4.34857143 L8.6939625,6.38948571 L9.2689875,6.38948571 C9.4518,6.38948571 9.6000375,6.23889524 9.6000375,6.05318095 L9.6000375,5.7864381 L6.969225,4.03546667 L9.6000375,4.03546667 L9.6000375,2.35401905 L6.9691875,2.35401905 L9.6000375,0.603047619 L9.6000375,0.336304762 C9.6000375,0.150552381 9.4517625,0 9.26895,0 L8.693925,0 L5.62755,2.04091429 L5.62755,0 L3.972375,0 L3.972375,2.04091429 L1.00665,0.0669714286 C0.660375,0.177447619 0.370875,0.417561905 0.1924875,0.73112381 L2.63085,2.35401905 L0,2.35401905 L0,4.03546667 L2.6308125,4.03546667 L0,5.7864381 L0,6.05318095 C0,6.23889524 0.1481625,6.38948571 0.33105,6.38948571 Z"/><path id="star" fill="#FFF" fill-rule="nonzero" d="M4.9001625,8.22304762 L5.150025,9.06102857 L5.9507625,8.73702857 C6.0190875,8.70937143 6.0811875,8.78853333 6.0394875,8.85001905 L5.5503375,9.57093333 L6.2989125,10.0048762 C6.362775,10.0419048 6.3406125,10.1405714 6.2672625,10.1457905 L5.407425,10.206781 L5.5402125,11.0718857 C5.5515375,11.1457143 5.4617625,11.1896381 5.4120375,11.1345905 L4.8289875,10.4897143 L4.2459375,11.1345905 C4.1962125,11.1896 4.1064375,11.1456762 4.1177625,11.0718857 L4.25055,10.206781 L3.3907125,10.1457905 C3.3173625,10.1405714 3.2951625,10.0419048 3.3590625,10.0048762 L4.1076375,9.57093333 L3.6184875,8.85001905 C3.5767875,8.78853333 3.6388875,8.70937143 3.7072125,8.73702857 L4.50795,9.06102857 L4.7578125,8.22304762 C4.779225,8.15154286 4.8788625,8.15154286 4.9001625,8.22304762 Z M14.7479625,9.44228571 L14.870025,9.85161905 L15.26115,9.69333333 C15.2944875,9.67984762 15.3248625,9.71847619 15.3044625,9.74853333 L15.06555,10.1007238 L15.4312125,10.3127238 C15.4624125,10.330781 15.451575,10.3790095 15.415725,10.3815238 L14.995725,10.4113143 L15.0605625,10.8339048 C15.0661125,10.869981 15.0222375,10.8914286 14.9979375,10.8645333 L14.713125,10.5495238 L14.4283125,10.8645333 C14.4040125,10.8913905 14.360175,10.8699429 14.3656875,10.8339048 L14.430525,10.4113143 L14.010525,10.3815238 C13.974675,10.3790095 13.9638375,10.330781 13.9950375,10.3127238 L14.3607,10.1007238 L14.1217875,9.74853333 C14.1013875,9.71847619 14.1317625,9.67984762 14.1651,9.69333333 L14.5562625,9.85161905 L14.678325,9.44228571 C14.6888625,9.40739048 14.737575,9.40739048 14.7479625,9.44228571 Z M15.6922875,6.1423619 C15.7049625,6.10373333 15.758775,6.10373333 15.771525,6.1423619 L15.771525,6.1423619 L15.8695125,6.44087619 L16.179225,6.44331429 C16.2193125,6.44365714 16.2359625,6.49558095 16.203675,6.51980952 L16.203675,6.51980952 L15.9544875,6.70674286 L16.0479375,7.00674286 C16.0600125,7.0455619 16.0165125,7.07767619 15.9838875,7.05401905 L15.9838875,7.05401905 L15.7318875,6.87104762 L15.4798875,7.05401905 C15.4473,7.07771429 15.4037625,7.0456 15.4158375,7.00674286 L15.4158375,7.00674286 L15.5092875,6.70674286 L15.2601375,6.51980952 C15.22785,6.49561905 15.2445,6.44365714 15.2845875,6.44331429 L15.2845875,6.44331429 L15.5943,6.44087619 Z M12.026325,5.40681905 L12.1483875,5.81615238 L12.53955,5.65790476 C12.5728875,5.64441905 12.6032625,5.68304762 12.5828625,5.71310476 L12.34395,6.06529524 L12.7096125,6.27729524 C12.7408125,6.29535238 12.729975,6.34358095 12.694125,6.34609524 L12.274125,6.37588571 L12.339,6.79847619 C12.34455,6.83455238 12.300675,6.856 12.276375,6.82910476 L11.9915625,6.51409524 L11.70675,6.82910476 C11.68245,6.8559619 11.6386125,6.83451429 11.644125,6.79847619 L11.709,6.37588571 L11.289,6.34609524 C11.25315,6.34354286 11.2423125,6.29535238 11.2735125,6.27729524 L11.639175,6.06529524 L11.4002625,5.71310476 C11.3798625,5.68304762 11.4102375,5.64441905 11.443575,5.65790476 L11.8347375,5.81615238 L11.9568,5.40681905 C11.967225,5.37188571 12.0159,5.37188571 12.026325,5.40681905 Z M17.3228625,4.0616381 L17.444925,4.47097143 L17.8360875,4.31272381 C17.869425,4.2992381 17.8998,4.33786667 17.8794,4.36792381 L17.6404875,4.72011429 L18.00615,4.93211429 C18.03735,4.95017143 18.0265125,4.9984 17.9906625,5.00091429 L17.5706625,5.03070476 L17.6355375,5.45329524 C17.6410875,5.48937143 17.5972125,5.51081905 17.5729125,5.48392381 L17.2881,5.16891429 L17.0032875,5.48392381 C16.9789875,5.51078095 16.93515,5.48933333 16.9407,5.45329524 L17.005575,5.03070476 L16.585575,5.00091429 C16.549725,4.9983619 16.5388875,4.95017143 16.5700875,4.93211429 L16.93575,4.72011429 L16.6968375,4.36792381 C16.6764375,4.33786667 16.7068125,4.2992381 16.74015,4.31272381 L17.1313125,4.47097143 L17.253375,4.0616381 C17.2637625,4.02674286 17.3124375,4.02674286 17.3228625,4.0616381 Z M14.7479625,2.26491429 L14.870025,2.67424762 L15.26115,2.516 C15.2944875,2.50251429 15.3248625,2.54114286 15.3044625,2.5712 L15.06555,2.92339048 L15.4312125,3.13539048 C15.4624125,3.15344762 15.451575,3.20167619 15.415725,3.20419048 L14.995725,3.23398095 L15.0605625,3.65657143 C15.0661125,3.69264762 15.0222375,3.71409524 14.9979375,3.6872 L14.713125,3.37219048 L14.4283125,3.6872 C14.4040125,3.71405714 14.360175,3.69260952 14.3656875,3.65657143 L14.430525,3.23398095 L14.010525,3.20419048 C13.974675,3.2016381 13.9638375,3.15344762 13.9950375,3.13539048 L14.3607,2.92339048 L14.1217875,2.5712 C14.1013875,2.54114286 14.1317625,2.50251429 14.1651,2.516 L14.5562625,2.67424762 L14.678325,2.26491429 C14.6888625,2.22994286 14.737575,2.22994286 14.7479625,2.26491429 Z"/><path id="red" fill="#F44336" fill-rule="nonzero" d="M5.2965375,0 L5.2965375,2.69032381 L9.6,2.69032381 L9.6,3.6991619 L5.2965375,3.6991619 L5.2965375,6.38948571 L4.3034625,6.38948571 L4.3034625,3.6991619 L0,3.6991619 L0,2.69032381 L4.3034625,2.69032381 L4.3034625,0 L5.2965375,0 Z M3.9633375,4.03546667 L0.3934875,6.38948571 L0.33105,6.38948571 C0.23247,6.38948571 0.146706,6.34377143 0.0871404,6.27356404 L0.0475875,6.21664762 L3.355275,4.03546667 L3.9633375,4.03546667 Z M6.494775,4.03550476 L9.59475,6.07961905 C9.5848125,6.20293333 9.512475,6.30712381 9.407025,6.3568381 L9.407025,6.3568381 L5.88675,4.03550476 L6.494775,4.03550476 Z M0.5477625,0.314019048 L3.6413625,2.35401905 L3.0333375,2.35401905 L0.3085125,0.557180952 C0.3786375,0.466895238 0.458925,0.385257143 0.5477625,0.314019048 Z M9.26895,0 C9.36612,0 9.450594,0.044568381 9.509988,0.11308861 L9.5496375,0.168647619 L6.2356125,2.35401905 L5.6275875,2.35401905 L9.197325,0 L9.26895,0 Z"/><rect id="border" width="18.4" height="12" x=".4" y=".4" stroke="#000" stroke-opacity=".04" stroke-width=".8" rx="1.6"/></g><rect id="border" width="18.4" height="12" x=".4" y=".4" stroke="#000" stroke-opacity=".04" stroke-width=".8" rx="1.6"/></g><g id="icons/flags/ic-japan-jpy" transform="translate(6.400000, 6.400000)"><g id="Icon/Flag/Japan" fill-rule="evenodd" stroke-width="1"><path id="White" fill="#FFF" fill-rule="nonzero" d="M17.7620625,0.0104761905 L1.4379375,0.0104761905 C0.6437625,0.0104761905 0,0.664457143 0,1.4712381 L0,11.3287619 C0,12.1355048 0.6437625,12.7895238 1.4379375,12.7895238 L17.7620625,12.7895238 C18.5562,12.7895238 19.2,12.1355429 19.2,11.3287619 L19.2,1.4712381 C19.2,0.664457143 18.5562375,0.0104761905 17.7620625,0.0104761905 Z"/><ellipse id="Red" cx="9.6" cy="6.4" fill="#ED293F" fill-rule="nonzero" rx="3.641" ry="3.699"/></g><rect id="border" width="18.4" height="12" x=".4" y=".4" stroke="#000" stroke-opacity=".04" stroke-width=".8" rx="1.6"/></g><rect id="border" width="18.4" height="12" x="6.8" y="6.8" stroke="#000" stroke-opacity=".04" stroke-width=".8" rx="1.6"/></g></g></g></g></g><g id="components/chart/toolbar" fill-rule="evenodd" stroke-width="1" transform="translate(0.000000, 72.000000)"><g id="chart-toolbar"><rect id="bg-all" width="44.8" height="204.763" x="0" y="0" fill="#F2F3F4" fill-rule="nonzero" rx="3.2"/><mask id="mask-12" fill="#fff"><use xlink:href="#path-11"/></mask><use id="bg-in" fill="#FFF" fill-rule="nonzero" xlink:href="#path-11"/><g id="ic-mountain" mask="url(#mask-12)"><g transform="translate(6.400000, 7.583815)"><rect id="bg" width="32" height="37.919" x="0" y="0" fill="#FFF" fill-rule="evenodd" opacity="0"/><g id="icons/chart-toolbar/chart-types/ic-mountain-normal" fill="none" transform="translate(6.400000, 7.583815)"><g id="ic-mountain" fill="#333" fill-rule="evenodd" stroke-width="1" transform="translate(1.200000, 3.389474)"><path id="Path-2" d="M8.01449498,9.01697999 L15.7324141,0.608510203 C15.9898231,0.328069856 16.4,0.549205609 16.4,0.968421053 L16.4,15.4947368 C16.4,15.7621589 16.2209139,15.9789474 16,15.9789474 L0.8,15.9789474 C0.5790861,15.9789474 0.4,15.7621589 0.4,15.4947368 L0.4,12.5894737 C0.4,12.4610531 0.442142736,12.3378922 0.517157288,12.2470851 L5.31715729,6.43655882 C5.473367,6.24746285 5.726633,6.24746285 5.88284271,6.43655882 L8.01449498,9.01697999 Z M1.2,15.0105263 L15.6,15.0105263 L15.6,2.05564916 L8.26758589,10.0441214 C8.10945457,10.2164013 7.86758996,10.2087018 7.71715729,10.0265991 L5.6,7.46372446 L1.2,12.7900403 L1.2,15.0105263 Z"/></g><text id="30M" fill="#000" fill-opacity=".8" font-family="IBM Plex Sans, sans-serif" font-size="6.4" font-weight="bold"><tspan x="0" y="6.842">30M</tspan></text></g></g></g><g id="ic-indicator" mask="url(#mask-12)"><g transform="translate(6.400000, 45.502890)"><rect id="bg" width="32" height="37.919" x="0" y="0" fill="#FFF" opacity="0"/><g id="icons/chart-toolbar/ic-indicators" fill="none" stroke-width="1" transform="translate(6.400000, 7.583815)"><g id="vector"><rect id="bg" width="19.2" height="23.242" x="0" y="0" opacity="0"/><path id="Path-45" stroke="#979797" stroke-linejoin="round" stroke-width=".8" d="M2,4.35789474 L17.2,4.35789474 L2,4.35789474 Z"/><path id="Path-45-Copy" stroke="#979797" stroke-linejoin="round" stroke-width=".8" d="M2,19.8526316 L14,19.8526316 L2,19.8526316 Z"/><path id="Path-46" stroke="#979797" stroke-linecap="round" stroke-linejoin="round" stroke-width=".8" d="M2.8,2.42105263 L2.8,20.8210526"/><path id="Path-46-Copy" stroke="#979797" stroke-linecap="round" stroke-linejoin="round" stroke-width=".8" d="M16.4,2.42105263 L16.4,13.0736842"/><polyline id="Path-44" stroke="#979797" stroke-linecap="round" stroke-linejoin="round" stroke-width=".8" points="5.2 14.042 8.4 10.168 10.8 14.042 14 9.2"/><polygon id="Path-47" stroke="#979797" stroke-linecap="round" stroke-linejoin="round" stroke-width=".8" points="15.6 15.011 15.6 16.463 15.6 18.884"/><path id="Path-48" stroke="#979797" stroke-linecap="round" stroke-linejoin="round" stroke-width=".8" d="M14,16.9473684 L17.2,16.9473684"/></g><g id="ic-indicators"><rect id="bg" width="19.2" height="23.242" x="0" y="0" opacity="0"/><path id="Combined-Shape" fill="#333" d="M16.4,1.93684211 C16.5963679,1.93684211 16.7596867,2.10813173 16.7935555,2.33401518 L16.8,2.42105263 L16.8,3.87284211 L17.2,3.87368421 C17.4209139,3.87368421 17.6,4.09047265 17.6,4.35789474 C17.6,4.59560326 17.4584999,4.79330495 17.2719005,4.83430398 L17.2,4.84210526 L16.8,4.84184211 L16.8,13.0736842 C16.8,13.3113927 16.6584999,13.5090944 16.4719005,13.5500935 L16.4,13.5578947 C16.2036321,13.5578947 16.0403133,13.3866051 16.0064445,13.1607217 L16,13.0736842 L16,4.84184211 L3.2,4.84184211 L3.2,19.3678421 L14,19.3684211 C14.2209139,19.3684211 14.4,19.5852095 14.4,19.8526316 C14.4,20.0903401 14.2584999,20.2880418 14.0719005,20.3290408 L14,20.3368421 L3.2,20.3368421 L3.2,20.8210526 C3.2,21.0587612 3.05849987,21.2564628 2.87190051,21.2974619 L2.8,21.3052632 C2.60363209,21.3052632 2.4403133,21.1339735 2.40644454,20.9080901 L2.4,20.8210526 L2.4,20.3368421 L2,20.3368421 C1.7790861,20.3368421 1.6,20.1200537 1.6,19.8526316 C1.6,19.6149231 1.74150013,19.4172214 1.92809949,19.3762223 L2,19.3684211 L2.4,19.3678421 L2.4,4.84184211 L2,4.84210526 C1.7790861,4.84210526 1.6,4.62531683 1.6,4.35789474 C1.6,4.12018621 1.74150013,3.92248453 1.92809949,3.88148549 L2,3.87368421 L2.4,3.87284211 L2.4,2.42105263 C2.4,2.18334411 2.54150013,1.98564242 2.72809949,1.94464339 L2.8,1.93684211 C2.99636791,1.93684211 3.1596867,2.10813173 3.19355546,2.33401518 L3.2,2.42105263 L3.2,3.87284211 L16,3.87284211 L16,2.42105263 C16,2.21305767 16.108336,2.03569295 16.260427,1.96713554 L16.3280995,1.94464339 L16.4,1.93684211 Z M15.5280995,14.5341171 L15.6,14.5263158 C15.7963679,14.5263158 15.9596867,14.6976054 15.9935555,14.9234889 L16,15.0105263 L16,16.4623158 L17.2,16.4631579 C17.3963679,16.4631579 17.5596867,16.6344475 17.5935555,16.860331 L17.6,16.9473684 C17.6,17.1850769 17.4584999,17.3827786 17.2719005,17.4237777 L17.2,17.4315789 L16,17.4313158 L16,18.8842105 C16,19.1219191 15.8584999,19.3196207 15.6719005,19.3606198 L15.6,19.3684211 C15.4036321,19.3684211 15.2403133,19.1971314 15.2064445,18.971248 L15.2,18.8842105 L15.2,17.4313158 L14,17.4315789 C13.8036321,17.4315789 13.6403133,17.2602893 13.6064445,17.0344059 L13.6,16.9473684 C13.6,16.7096599 13.7415001,16.5119582 13.9280995,16.4709592 L14,16.4631579 L15.2,16.4623158 L15.2,15.0105263 C15.2,14.7728178 15.3415001,14.5751161 15.5280995,14.5341171 L15.6,14.5263158 Z M14.249878,8.8218951 C14.4008197,8.9680702 14.4411008,9.21963568 14.3563609,9.42013719 L14.3123475,9.50248392 L11.1123475,14.3445892 C10.9653367,14.5670398 10.6978232,14.5845042 10.5314192,14.4011731 L10.48,14.3326316 L8.35672232,10.9055869 L5.48284271,14.3844938 C5.326633,14.5735898 5.073367,14.5735898 4.91715729,14.3844938 C4.78047379,14.2190348 4.76338835,13.9636232 4.86590097,13.7756761 L4.91715729,13.6997167 L8.11715729,9.82603251 C8.27015617,9.64082333 8.51207822,9.63959446 8.66652668,9.80717059 L8.72,9.87789474 L10.8102016,13.2515535 L13.6876525,8.89751608 C13.8256563,8.68869451 14.0773732,8.65483785 14.249878,8.8218951 Z"/></g></g></g></g><g id="ic-templates" mask="url(#mask-12)"><g transform="translate(6.400000, 83.421965)"><rect id="bg" width="32" height="37.919" x="0" y="0" fill="#FFF" opacity="0"/><g id="icons/chart-toolbar/ic-templates" fill="none" stroke-width="1" transform="translate(6.400000, 7.583815)"><g id="ic-templates"><rect id="bg" width="19.2" height="23.242" x="0" y="0" opacity="0"/><path id="Combined-Shape" fill="#333" d="M17.2,1.93684211 C17.4209139,1.93684211 17.6,2.15363054 17.6,2.42105263 L17.6,20.8210526 C17.6,21.0884747 17.4209139,21.3052632 17.2,21.3052632 L2,21.3052632 C1.7790861,21.3052632 1.6,21.0884747 1.6,20.8210526 L1.6,2.42105263 C1.6,2.15363054 1.7790861,1.93684211 2,1.93684211 L17.2,1.93684211 Z M5.6,17.4308421 L2.399,17.4308421 L2.4,20.3368421 L5.6,20.3368421 L5.6,17.4308421 Z M16.8,17.4308421 L6.4,17.4308421 L6.4,20.3368421 L16.8,20.3368421 L16.8,17.4308421 Z M5.6,13.5578421 L2.4,13.5578947 L2.4,16.4631579 L5.6,16.4628421 L5.6,13.5578421 Z M16.8,13.5578947 L6.4,13.5578421 L6.4,16.4628421 L16.8,16.4631579 L16.8,13.5578947 Z M16.8,2.90526316 L2.4,2.90526316 L2.399,12.5888421 L16.8,12.5888421 L16.8,2.90526316 Z M13.6876525,5.02383187 C13.8256563,4.8150103 14.0773732,4.78115364 14.249878,4.94821089 C14.4223828,5.11526815 14.4503513,5.41997814 14.3123475,5.62879971 L14.3123475,5.62879971 L11.1123475,10.470905 C10.9490022,10.7180723 10.6368881,10.7121703 10.48,10.4589474 L10.48,10.4589474 L8.35672232,7.0319027 L5.48284271,10.5108096 C5.326633,10.6999056 5.073367,10.6999056 4.91715729,10.5108096 C4.76094757,10.3217136 4.76094757,10.0151285 4.91715729,9.82603251 L4.91715729,9.82603251 L8.11715729,5.9523483 C8.28928104,5.74398797 8.57394816,5.76847773 8.72,6.00421053 L8.72,6.00421053 L10.8102016,9.37786932 Z"/></g></g></g></g><g id="ic-draw-tools" mask="url(#mask-12)"><g transform="translate(6.400000, 121.341040)"><rect id="bg" width="32" height="37.919" x="0" y="0" fill="#FFF" opacity="0"/><g id="icons/chart-toolbar/ic-draw-tools" fill="none" stroke-width="1" transform="translate(6.400000, 7.583815)"><g id="vector"><rect id="bg" width="19.2" height="23.242" x="0" y="0" opacity="0"/><polygon id="Path-40" stroke="#979797" stroke-linejoin="round" stroke-width=".8" points="14 2.421 17.2 6.295 6.8 18.884 2 20.821 3.6 15.011"/><path id="Path-42" stroke="#979797" stroke-linecap="round" stroke-linejoin="round" stroke-width=".8" d="M12,4.84210526 L15.2,8.71578947"/><path id="Path-2" stroke="#979797" stroke-linecap="round" stroke-linejoin="round" stroke-width=".8" d="M6.8,18.8842105 L3.6,15.0105263"/><path id="Path-43" stroke="#979797" stroke-linecap="round" stroke-linejoin="round" stroke-width=".8" d="M2,20.8210526 L15.6,20.8210526"/></g><g id="ic-drsw-tools"><rect id="bg" width="19.2" height="23.242" x="0" y="0" opacity="0"/><path id="Combined-Shape" fill="#333" d="M3.77430836,15.9068421 L2.63245553,20.0554486 L6.05930836,18.6728421 L3.77430836,15.9068421 Z M11.9993084,5.52584211 L4.16530836,15.0098421 L6.79930836,18.1988421 L14.6333084,8.71584211 L11.9993084,5.52584211 Z M3.22332362,14.8458421 L3.2361906,14.8092628 L3.2361906,14.8092628 L3.23785798,14.8045933 L3.25593663,14.7635659 L3.25593663,14.7635659 L3.27632362,14.7258421 L3.31715729,14.6681378 L3.31715729,14.6681378 L13.7171573,2.07866408 C13.873367,1.88956811 14.126633,1.88956811 14.2828427,2.07866408 L17.4828427,5.9523483 C17.6390524,6.14144427 17.6390524,6.44802942 17.4828427,6.63712539 L7.08284271,19.2265991 C7.06482838,19.2484059 7.04519484,19.2680069 7.02423482,19.2851831 C7.01971226,19.2890067 7.01506947,19.2926514 7.01037965,19.2961677 C6.99602416,19.3067794 6.98120122,19.3163678 6.96590889,19.324806 C6.95646315,19.3301664 6.94667678,19.3350055 6.93677693,19.3393561 L6.92649111,19.343573 L6.92649111,19.343573 L4.46332362,20.3368421 L15.6,20.3368421 C15.7963679,20.3368421 15.9596867,20.5081317 15.9935555,20.7340152 L16,20.8210526 C16,21.0884747 15.8209139,21.3052632 15.6,21.3052632 L15.6,21.3052632 L2.00545976,21.3060139 C1.95556555,21.3071687 1.9074647,21.2967287 1.86289823,21.2768015 C1.85826778,21.2740189 1.85419196,21.2721178 1.85014896,21.270139 C1.83583856,21.263732 1.82149567,21.2553952 1.80763686,21.246088 C1.79866995,21.2397311 1.78994803,21.2333886 1.78145031,21.2266655 C1.77141586,21.2189015 1.76162279,21.2103173 1.75216732,21.2012315 C1.74423213,21.193537 1.73695409,21.1860261 1.72990796,21.1782137 C1.72187815,21.1693124 1.71407702,21.159927 1.70659829,21.1501764 C1.69841623,21.1394788 1.69067255,21.1284136 1.68334502,21.1169393 C1.67613389,21.1058323 1.66930219,21.0941886 1.66289566,21.0821931 C1.65932572,21.0750708 1.655747,21.067916 1.65231951,21.0606432 C1.6433695,21.0424592 1.63559442,21.0233617 1.62887768,21.0036426 C1.62745946,20.9978303 1.62561132,20.9920179 1.62385413,20.9861527 C1.59399375,20.8897911 1.58976001,20.7796634 1.62052668,20.6679318 L3.22052668,14.8574055 L3.22332362,14.8458421 Z M3.31715729,14.6681378 L3.28371051,14.7140445 L3.28371051,14.7140445 L3.27071682,14.7356206 C3.28443246,14.7115464 3.29996503,14.6889494 3.31715729,14.6681378 Z M14,3.10582972 L12.5653084,4.84084211 L15.1993084,8.03084211 L16.6343146,6.29473684 L14,3.10582972 Z"/></g></g></g></g><g id="ic-download" mask="url(#mask-12)"><g transform="translate(6.400000, 159.260116)"><rect id="bg" width="32" height="37.919" x="0" y="0" fill="#FFF" opacity="0"/><g id="icons/chart-toolbar/ic-download" fill="none" stroke-width="1" transform="translate(6.400000, 7.583815)"><g id="ic-download-2"><rect id="bg" width="19.2" height="23.242" x="0" y="0" opacity="0"/><path id="Combined-Shape" fill="#333" d="M4.4,15.4947368 C4.6209139,15.4947368 4.8,15.7115253 4.8,15.9789474 L4.8,15.9789474 L4.8,17.4315789 L14.4,17.4315789 L14.4,15.9789474 C14.4,15.7115253 14.5790861,15.4947368 14.8,15.4947368 L14.8,15.4947368 L17.2,15.4947368 C17.4209139,15.4947368 17.6,15.7115253 17.6,15.9789474 L17.6,15.9789474 L17.6,20.8210526 C17.6,21.0884747 17.4209139,21.3052632 17.2,21.3052632 L17.2,21.3052632 L2,21.3052632 C1.7790861,21.3052632 1.6,21.0884747 1.6,20.8210526 L1.6,20.8210526 L1.6,15.9789474 C1.6,15.7115253 1.7790861,15.4947368 2,15.4947368 L2,15.4947368 Z M4,16.4631579 L2.4,16.4631579 L2.4,20.3368421 L16.8,20.3368421 L16.8,16.4631579 L15.2,16.4631579 L15.2,17.9157895 C15.2,18.1832116 15.0209139,18.4 14.8,18.4 L14.8,18.4 L4.4,18.4 C4.1790861,18.4 4,18.1832116 4,17.9157895 L4,17.9157895 L4,16.4631579 Z M11.0526316,3.2 C11.3200537,3.2 11.5368421,3.3790861 11.5368421,3.6 L11.5368421,9.6 L13.9578947,9.6 C14.3569062,9.6 14.58467,9.9763055 14.3452632,10.24 L9.98736842,15.04 C9.79368421,15.2533333 9.40631579,15.2533333 9.21263158,15.04 L4.85473684,10.24 C4.61532999,9.9763055 4.84309385,9.6 5.24210526,9.6 L7.66315789,9.6 L7.66315789,3.6 C7.66315789,3.3790861 7.87994633,3.2 8.14736842,3.2 L11.0526316,3.2 Z M10.5684211,4 L8.63157895,4 L8.63157895,10 C8.63157895,10.2209139 8.41479051,10.4 8.14736842,10.4 L6.21052632,10.4 L9.6,14.1333333 L12.9894737,10.4 L11.0526316,10.4 C10.7852095,10.4 10.5684211,10.2209139 10.5684211,10 L10.5684211,4 Z"/></g></g></g></g></g></g></g></g></g></g><g id="Group-11" mask="url(#mask-2)"><g id="toolbar"><g transform="translate(0.000000, 14.000000)"><g id="chart-toolbar"><rect id="bg-all" width="65" height="252.239" x="0" y="0" fill="#F2F3F4" fill-rule="nonzero" rx="3.881"/><mask id="mask-14" fill="#fff"><use xlink:href="#path-13"/></mask><use id="bg-in" fill="#FFF" fill-rule="nonzero" xlink:href="#path-13"/><g id="ic-mountain" mask="url(#mask-14)"><g transform="translate(9.285714, 9.342178)"><rect id="bg" width="46.429" height="46.711" x="0" y="0" fill="#D6DADB" fill-rule="nonzero"/><g id="icons/chart-toolbar/chart-types/ic-mountain-normal" fill="none" transform="translate(9.285714, 9.342178)"><g id="ic-mountain" fill="#333" fill-rule="evenodd" stroke-width="1" transform="translate(1.771577, 4.133679)"><path id="Path-2" d="M11.8319118,10.9967824 L23.2259845,0.742117019 C23.606001,0.400102122 24.2115509,0.669791283 24.2115509,1.18105127 L24.2115509,18.8968202 C24.2115509,19.2229585 23.9471636,19.4873459 23.6210253,19.4873459 L1.18105127,19.4873459 C0.854912964,19.4873459 0.590525633,19.2229585 0.590525633,18.8968202 L0.590525633,15.3536665 C0.590525633,15.1970493 0.652741548,15.0468468 0.763486586,14.9361018 L7.84979418,7.84979418 C8.08040878,7.61917957 8.45430893,7.61917957 8.68492354,7.84979418 L11.8319118,10.9967824 Z M1.7715769,18.3062946 L23.0304997,18.3062946 L23.0304997,2.50699532 L12.2055535,12.2494469 C11.972102,12.4595532 11.6150339,12.4501632 11.392948,12.2280773 L8.26735886,9.10248822 L1.7715769,15.5982702 L1.7715769,18.3062946 Z"/></g><text id="30M" fill="#000" fill-opacity=".8" font-family="IBM Plex Sans, sans-serif" font-size="7.761" font-weight="bold"><tspan x="0" y="7.978">30M</tspan></text></g></g></g><g id="ic-indicator" mask="url(#mask-14)"><g transform="translate(9.285714, 56.053068)"><rect id="bg" width="46.429" height="46.711" x="0" y="0" fill="#FFF" fill-rule="nonzero" opacity="0"/><g id="icons/chart-toolbar/ic-indicators" fill="none" fill-rule="evenodd" stroke-width="1" transform="translate(9.285714, 9.342178)"><g id="vector"><rect id="bg" width="28.345" height="28.345" x="0" y="0" opacity="0"/><path id="Path-45" stroke="#979797" stroke-linejoin="round" stroke-width=".97" d="M2.95262816,5.31473069 L25.3926022,5.31473069 L2.95262816,5.31473069 Z"/><path id="Path-45-Copy" stroke="#979797" stroke-linejoin="round" stroke-width=".97" d="M2.95262816,24.2115509 L20.6683971,24.2115509 L2.95262816,24.2115509 Z"/><path id="Path-46" stroke="#979797" stroke-linecap="round" stroke-linejoin="round" stroke-width=".97" d="M4.13367943,2.95262816 L4.13367943,25.3926022"/><path id="Path-46-Copy" stroke="#979797" stroke-linecap="round" stroke-linejoin="round" stroke-width=".97" d="M24.2115509,2.95262816 L24.2115509,15.9441921"/><polyline id="Path-44" stroke="#979797" stroke-linecap="round" stroke-linejoin="round" stroke-width=".97" points="7.677 17.125 12.401 12.401 15.944 17.125 20.668 11.22"/><polygon id="Path-47" stroke="#979797" stroke-linecap="round" stroke-linejoin="round" stroke-width=".97" points="23.03 18.306 23.03 20.078 23.03 23.03"/><path id="Path-48" stroke="#979797" stroke-linecap="round" stroke-linejoin="round" stroke-width=".97" d="M20.6683971,20.6683971 L25.3926022,20.6683971"/></g><g id="ic-indicators"><rect id="bg" width="28.345" height="28.345" x="0" y="0" opacity="0"/><path id="Combined-Shape" fill="#333" d="M24.2115509,2.36210253 C24.5050754,2.36210253 24.7485816,2.57625627 24.7943476,2.85684184 L24.8020766,2.95262816 L24.8011025,4.72410253 L25.3926022,4.72420506 C25.7187405,4.72420506 25.9831278,4.98859239 25.9831278,5.31473069 C25.9831278,5.60825517 25.7689741,5.85176135 25.4883885,5.89752734 L25.3926022,5.90525633 L24.8011025,5.90510253 L24.8020766,15.9441921 C24.8020766,16.2377166 24.5879228,16.4812227 24.3073373,16.5269887 L24.2115509,16.5347177 C23.9180265,16.5347177 23.6745203,16.320564 23.6287543,16.0399784 L23.6210253,15.9441921 L23.6201025,5.90510253 L4.72410253,5.90510253 L4.72410253,23.6201025 L20.6683971,23.6210253 C20.9945354,23.6210253 21.2589228,23.8854126 21.2589228,24.2115509 C21.2589228,24.5050754 21.044769,24.7485816 20.7641835,24.7943476 L20.6683971,24.8020766 L4.72410253,24.8011025 L4.72420506,25.3926022 C4.72420506,25.6861267 4.51005132,25.9296329 4.22946575,25.9753989 L4.13367943,25.9831278 C3.84015496,25.9831278 3.59664877,25.7689741 3.55088278,25.4883885 L3.5431538,25.3926022 L3.54310253,24.8011025 L2.95262816,24.8020766 C2.62648986,24.8020766 2.36210253,24.5376892 2.36210253,24.2115509 C2.36210253,23.9180265 2.57625627,23.6745203 2.85684184,23.6287543 L2.95262816,23.6210253 L3.54310253,23.6201025 L3.54310253,5.90510253 L2.95262816,5.90525633 C2.62648986,5.90525633 2.36210253,5.640869 2.36210253,5.31473069 C2.36210253,5.02120622 2.57625627,4.77770004 2.85684184,4.73193405 L2.95262816,4.72420506 L3.54310253,4.72410253 L3.5431538,2.95262816 C3.5431538,2.65910369 3.75730753,2.41559751 4.0378931,2.36983151 L4.13367943,2.36210253 C4.4272039,2.36210253 4.67071009,2.57625627 4.71647608,2.85684184 L4.72420506,2.95262816 L4.72410253,4.72410253 L23.6201025,4.72410253 L23.6210253,2.95262816 C23.6210253,2.69171752 23.7902332,2.4703275 24.0248992,2.39220792 L24.1157646,2.36983151 L24.2115509,2.36210253 Z M22.9347134,17.723498 L23.0304997,17.715769 C23.3240241,17.715769 23.5675303,17.9299227 23.6132963,18.2105083 L23.6210253,18.3062946 L23.6208715,20.077769 L25.3926022,20.0778715 C25.6861267,20.0778715 25.9296329,20.2920253 25.9753989,20.5726108 L25.9831278,20.6683971 C25.9831278,20.9619216 25.7689741,21.2054278 25.4883885,21.2511938 L25.3926022,21.2589228 L23.6208715,21.258769 L23.6210253,23.0304997 C23.6210253,23.3240241 23.4068716,23.5675303 23.126286,23.6132963 L23.0304997,23.6210253 C22.7369752,23.6210253 22.493469,23.4068716 22.447703,23.126286 L22.439974,23.0304997 L22.4398715,21.258769 L20.6683971,21.2589228 C20.3748727,21.2589228 20.1313665,21.044769 20.0856005,20.7641835 L20.0778715,20.6683971 C20.0778715,20.3748727 20.2920253,20.1313665 20.5726108,20.0856005 L20.6683971,20.0778715 L22.4398715,20.077769 L22.439974,18.3062946 C22.439974,18.0127701 22.6541278,17.769264 22.9347134,17.723498 L23.0304997,17.715769 Z M21.0372956,10.758864 C21.26367,10.9399635 21.3214472,11.2537061 21.1884008,11.5000546 L21.1295202,11.5888855 L16.4053151,17.4941418 C16.1860887,17.7681748 15.7853505,17.7871382 15.5402841,17.5562992 L15.4717716,17.4795587 L12.3371468,13.3000591 L8.0943979,17.542808 C7.8637833,17.7734226 7.48988315,17.7734226 7.25926855,17.542808 C7.05427779,17.3378173 7.03150104,17.0196132 7.19093829,16.789464 L7.25926855,16.7076787 L11.9834736,11.9834736 C12.2121714,11.7547758 12.5754503,11.7560981 12.8030049,11.9682306 L12.8734588,12.0467229 L15.9592529,16.1611151 L20.2072741,10.8510886 C20.4110111,10.5964174 20.7826244,10.555127 21.0372956,10.758864 Z"/></g></g></g></g><g id="ic-templates" mask="url(#mask-14)"><g transform="translate(9.285714, 102.763958)"><rect id="bg" width="46.429" height="46.711" x="0" y="0" fill="#FFF" opacity="0"/><g id="icons/chart-toolbar/ic-templates" fill="none" stroke-width="1" transform="translate(9.285714, 9.342178)"><g id="ic-templates"><rect id="bg" width="28.345" height="28.345" x="0" y="0" opacity="0"/><path id="Combined-Shape" fill="#333" d="M25.3926022,2.36210253 C25.7187405,2.36210253 25.9831278,2.62648986 25.9831278,2.95262816 L25.9831278,25.3926022 C25.9831278,25.7187405 25.7187405,25.9831278 25.3926022,25.9831278 L2.95262816,25.9831278 C2.62648986,25.9831278 2.36210253,25.7187405 2.36210253,25.3926022 L2.36210253,2.95262816 C2.36210253,2.62648986 2.62648986,2.36210253 2.95262816,2.36210253 L25.3926022,2.36210253 Z M8.26710253,21.2581025 L3.54310253,21.2581025 L3.5431538,24.8020766 L8.26735886,24.8020766 L8.26710253,21.2581025 Z M24.8011025,21.2581025 L9.44810253,21.2581025 L9.44841012,24.8020766 L24.8020766,24.8020766 L24.8011025,21.2581025 Z M8.26710253,16.5341025 L3.5431538,16.5347177 L3.5431538,20.0778715 L8.26710253,20.0771025 L8.26710253,16.5341025 Z M24.8020766,16.5347177 L9.44810253,16.5341025 L9.44810253,20.0771025 L24.8020766,20.0778715 L24.8020766,16.5347177 Z M24.8020766,3.5431538 L3.5431538,3.5431538 L3.54310253,15.3531025 L24.8011025,15.3531025 L24.8020766,3.5431538 Z M20.2072741,6.12688352 C20.4110111,5.87221229 20.7826244,5.83092193 21.0372956,6.03465891 C21.2919668,6.23839589 21.3332572,6.61000917 21.1295202,6.8646804 L21.1295202,6.8646804 L16.4053151,12.7699367 C16.1641661,13.0713731 15.7033877,13.0641752 15.4717716,12.7553537 L15.4717716,12.7553537 L12.3371468,8.57585402 L8.0943979,12.818603 C7.8637833,13.0492176 7.48988315,13.0492176 7.25926855,12.818603 C7.02865394,12.5879884 7.02865394,12.2140882 7.25926855,11.9834736 L7.25926855,11.9834736 L11.9834736,7.25926855 C12.2375823,7.00515983 12.6578404,7.03502665 12.8734588,7.32251785 L12.8734588,7.32251785 L15.9592529,11.43691 Z"/></g></g></g></g><g id="ic-draw-tools" mask="url(#mask-14)"><g transform="translate(9.285714, 149.474848)"><rect id="bg" width="46.429" height="46.711" x="0" y="0" fill="#FFF" opacity="0"/><g id="icons/chart-toolbar/ic-draw-tools" fill="none" stroke-width="1" transform="translate(9.285714, 9.342178)"><g id="vector"><rect id="bg" width="28.345" height="28.345" x="0" y="0" opacity="0"/><polygon id="Path-40" stroke="#979797" stroke-linejoin="round" stroke-width=".97" points="20.668 2.953 25.393 7.677 10.039 23.03 2.953 25.393 5.315 18.306"/><path id="Path-42" stroke="#979797" stroke-linecap="round" stroke-linejoin="round" stroke-width=".97" d="M17.715769,5.90525633 L22.439974,10.6294614"/><path id="Path-2" stroke="#979797" stroke-linecap="round" stroke-linejoin="round" stroke-width=".97" d="M10.0389358,23.0304997 L5.31473069,18.3062946"/><path id="Path-43" stroke="#979797" stroke-linecap="round" stroke-linejoin="round" stroke-width=".97" d="M2.95262816,25.3926022 L23.0304997,25.3926022"/></g><g id="ic-drsw-tools"><rect id="bg" width="28.345" height="28.345" x="0" y="0" opacity="0"/><path id="Combined-Shape" fill="#333" d="M2.95262816,25.9831278 L2.94026639,25.9840724 C2.91351323,25.9836364 2.88714613,25.9813406 2.86129084,25.9773109 C2.85734336,25.9754973 2.85298282,25.974773 2.8486387,25.9740013 C2.82176803,25.9703628 2.79596921,25.9638184 2.77086845,25.9556051 C2.76774415,25.9536241 2.7637155,25.9522809 2.75970642,25.9508958 C2.73736564,25.9439772 2.71633419,25.9351577 2.69593279,25.9251882 C2.68778499,25.9206283 2.67979919,25.9165379 2.6719213,25.9122736 C2.65906093,25.9057465 2.64622548,25.8980961 2.63370497,25.8899856 C2.56229916,25.8437715 2.50145889,25.7829312 2.45556839,25.711565 C2.4471343,25.6990049 2.43948386,25.6861694 2.43231891,25.6730445 C2.42869245,25.6654312 2.42460204,25.6574454 2.42069068,25.6493568 C2.3967475,25.601628 2.37973208,25.5505186 2.37012812,25.4971015 C2.36523169,25.4628333 2.36210253,25.4280832 2.36210253,25.3926022 L2.36807873,25.4849552 C2.3540945,25.3962765 2.36050978,25.3015513 2.39240636,25.2058616 L4.75450889,18.119554 L4.76704585,18.0850669 L4.77467796,18.067022 L4.77467796,18.067022 L4.78008261,18.0531025 L4.76808261,18.0841025 L4.78115949,18.0532681 C4.79134634,18.0317866 4.80281368,18.0109558 4.81549298,17.9908866 L4.83508261,17.9611025 L4.89716602,17.8887299 L4.89716602,17.8887299 L20.2508325,2.53506348 C20.4814471,2.30444888 20.8553472,2.30444888 21.0859618,2.53506348 L25.8101669,7.25926855 C26.0407815,7.48988315 26.0407815,7.8637833 25.8101669,8.0943979 L10.4565004,23.4480644 C10.4323989,23.4721659 10.4063341,23.4940581 10.3786277,23.5135421 L10.3543573,23.5298803 L10.3543573,23.5298803 C10.3355906,23.5415853 10.3161724,23.5523749 10.2961797,23.5620504 C10.2842269,23.5680084 10.2722597,23.5733049 10.2601635,23.5781845 L10.2431341,23.5846185 L10.2431341,23.5846185 L6.59208261,24.8011025 L23.0304997,24.8020766 C23.3240241,24.8020766 23.5675303,25.0162303 23.6132963,25.2968159 L23.6210253,25.3926022 C23.6210253,25.7187405 23.356638,25.9831278 23.0304997,25.9831278 L23.0304997,25.9831278 L2.96841761,25.9838439 L2.96841761,25.9838439 L2.95262816,25.9831278 L2.95262816,25.9831278 Z M5.57208145,19.3981025 L3.88633117,24.4588992 L8.94608145,22.7721025 L5.57208145,19.3981025 Z M17.7160815,6.74010253 L6.15008145,18.3061025 L10.0390815,22.1951025 L21.6050815,10.6291025 L17.7160815,6.74010253 Z M4.86269557,17.9263145 L4.83908261,17.9561025 L4.85302783,17.9380616 L4.85302783,17.9380616 L4.86269557,17.9263145 L4.86269557,17.9263145 Z M20.6683971,3.78775752 L18.5510815,5.90510253 L22.4400815,9.79410253 L24.5574728,7.67683323 L20.6683971,3.78775752 Z"/></g></g></g></g><g id="ic-download" mask="url(#mask-14)"><g transform="translate(9.285714, 196.185738)"><rect id="bg" width="46.429" height="46.711" x="0" y="0" fill="#FFF" opacity="0"/><g id="icons/chart-toolbar/ic-download" fill="none" stroke-width="1" transform="translate(9.285714, 9.342178)"><g id="ic-download-2"><rect id="bg" width="28.345" height="28.345" x="0" y="0" opacity="0"/><path id="Combined-Shape" fill="#333" d="M6.49578196,18.8968202 C6.82192026,18.8968202 7.08630759,19.1612076 7.08630759,19.4873459 L7.08630759,19.4873459 L7.08630759,21.2589228 L21.2589228,21.2589228 L21.2589228,19.4873459 C21.2589228,19.1612076 21.5233101,18.8968202 21.8494484,18.8968202 L21.8494484,18.8968202 L25.3926022,18.8968202 C25.7187405,18.8968202 25.9831278,19.1612076 25.9831278,19.4873459 L25.9831278,19.4873459 L25.9831278,25.3926022 C25.9831278,25.7187405 25.7187405,25.9831278 25.3926022,25.9831278 L25.3926022,25.9831278 L2.95262816,25.9831278 C2.62648986,25.9831278 2.36210253,25.7187405 2.36210253,25.3926022 L2.36210253,25.3926022 L2.36210253,19.4873459 C2.36210253,19.1612076 2.62648986,18.8968202 2.95262816,18.8968202 L2.95262816,18.8968202 Z M5.90525633,20.0778715 L3.5431538,20.0778715 L3.5431538,24.8020766 L24.8020766,24.8020766 L24.8020766,20.0778715 L22.439974,20.0778715 L22.439974,21.8494484 C22.439974,22.1755867 22.1755867,22.439974 21.8494484,22.439974 L21.8494484,22.439974 L6.49578196,22.439974 C6.16964366,22.439974 5.90525633,22.1755867 5.90525633,21.8494484 L5.90525633,21.8494484 L5.90525633,20.0778715 Z M15.9441921,2.36210253 C16.2703304,2.36210253 16.5347177,2.62648986 16.5347177,2.95262816 L16.5347177,11.8105127 L19.4873459,11.8105127 C19.9739658,11.8105127 20.2517383,12.3660578 19.9597664,12.7553537 L14.6450357,19.8416613 C14.4088254,20.1566083 13.9364049,20.1566083 13.7001947,19.8416613 L8.38546398,12.7553537 C8.09349205,12.3660578 8.37126461,11.8105127 8.85788449,11.8105127 L11.8105127,11.8105127 L11.8105127,2.95262816 C11.8105127,2.62648986 12.0749,2.36210253 12.4010383,2.36210253 L15.9441921,2.36210253 Z M15.3536665,3.5431538 L12.9915639,3.5431538 L12.9915639,12.4010383 C12.9915639,12.7271766 12.7271766,12.9915639 12.4010383,12.9915639 L10.0389358,12.9915639 L14.1726152,18.5031365 L18.3062946,12.9915639 L15.9441921,12.9915639 C15.6180538,12.9915639 15.3536665,12.7271766 15.3536665,12.4010383 L15.3536665,3.5431538 Z"/></g></g></g></g></g></g></g></g><g id="chart-types" filter="url(#filter-15)" mask="url(#mask-2)"><g transform="translate(78.000000, -5.000000)"><mask id="mask-17" fill="#fff"><use xlink:href="#path-16"/></mask><use id="bg" fill="#FFF" fill-rule="nonzero" stroke="none" xlink:href="#path-16"/><rect id="divider" width="300" height="2.885" x="0" y="115.385" fill="#F2F3F4" fill-rule="nonzero" stroke="none" mask="url(#mask-17)"/><g id="time-interval" fill="none" fill-rule="evenodd" stroke="none" stroke-width="1" mask="url(#mask-17)"><g transform="translate(11.538462, 135.576923)"><text id="Time-interval" font-family="IBM Plex Sans, sans-serif" font-size="11.538" font-weight="bold" linespacing="17.308"><tspan x="0" y="11" fill="#333">Time interval</tspan></text><g id="icons/system/light/info/ic-info-less" fill-opacity=".8" fill-rule="evenodd" stroke-width="1" transform="translate(80, 1.5)"><g id="Group" fill="#000"><path id="Combined-Shape" d="M5.76923077,10.8173077 C8.55720667,10.8173077 10.8173077,8.55720667 10.8173077,5.76923077 C10.8173077,2.98125487 8.55720667,0.721153846 5.76923077,0.721153846 C2.98125487,0.721153846 0.721153846,2.98125487 0.721153846,5.76923077 C0.721153846,8.55720667 2.98125487,10.8173077 5.76923077,10.8173077 Z M5.76923077,0 C8.95548894,0 11.5384615,2.5829726 11.5384615,5.76923077 C11.5384615,8.95548894 8.95548894,11.5384615 5.76923077,11.5384615 C2.5829726,11.5384615 0,8.95548894 0,5.76923077 C0,2.5829726 2.5829726,0 5.76923077,0 Z M5.76923077,5.04807692 C5.57008963,5.04807692 5.40865385,5.20951271 5.40865385,5.40865385 L5.40865385,5.40865385 L5.40865385,8.29326923 C5.40865385,8.49241037 5.57008963,8.65384615 5.76923077,8.65384615 C5.9683719,8.65384615 6.12980769,8.49241037 6.12980769,8.29326923 L6.12980769,8.29326923 L6.12980769,5.40865385 C6.12980769,5.20951271 5.9683719,5.04807692 5.76923077,5.04807692 Z M5.76923077,3.24519231 C5.47051907,3.24519231 5.22836538,3.48734599 5.22836538,3.78605769 C5.22836538,4.0847694 5.47051907,4.32692308 5.76923077,4.32692308 C6.06794247,4.32692308 6.31009615,4.0847694 6.31009615,3.78605769 C6.31009615,3.48734599 6.06794247,3.24519231 5.76923077,3.24519231 Z"/></g></g><g id="row-1" fill-rule="evenodd" stroke-width="1" transform="translate(5.769231, 28.846154)"><g id="components/chart-types/interval-time/ic-interval-normal"><g id="interval"><g><rect id="Rectangle-17" width="57.692" height="23.077" x="0" y="0" fill="#FFF" opacity="0" rx="2.885"/><text id="label" fill="#333" font-family="IBM Plex Sans, sans-serif" font-size="10.096" font-weight="normal" linespacing="14.423"><tspan x="16.687" y="13.327">1 tick</tspan></text></g></g></g><g id="components/chart-types/interval-time/ic-interval-normal" transform="translate(69.230769, 0.000000)"><g id="interval"><g><rect id="Rectangle-17" width="57.692" height="23.077" x="0" y="0" fill="#FFF" opacity="0" rx="2.885"/><text id="label" fill="#333" font-family="IBM Plex Sans, sans-serif" font-size="10.096" font-weight="normal" linespacing="14.423"><tspan x="6.618" y="13.327">2 minutes</tspan></text></g></g></g><g id="components/chart-types/interval-time/ic-interval-normal" transform="translate(138.461538, 0.000000)"><g id="interval"><g><rect id="Rectangle-17" width="57.692" height="23.077" x="0" y="0" fill="#FFF" opacity="0" rx="2.885"/><text id="label" fill="#333" font-family="IBM Plex Sans, sans-serif" font-size="10.096" font-weight="normal" linespacing="14.423"><tspan x="6.618" y="13.327">3 minutes</tspan></text></g></g></g><g id="components/chart-types/interval-time/ic-interval-normal" transform="translate(207.692308, 0.000000)"><g id="interval"><g><rect id="Rectangle-17" width="57.692" height="23.077" x="0" y="0" fill="#FFF" opacity="0" rx="2.885"/><text id="label" fill="#333" font-family="IBM Plex Sans, sans-serif" font-size="10.096" font-weight="normal" linespacing="14.423"><tspan x="6.618" y="13.327">5 minutes</tspan></text></g></g></g></g><g id="row-2" fill-rule="evenodd" stroke-width="1" transform="translate(5.769231, 63.461538)"><g id="components/chart-types/interval-time/ic-interval-normal"><g id="interval"><g><rect id="Rectangle-17" width="57.692" height="23.077" x="0" y="0" fill="#FFF" opacity="0" rx="2.885"/><text id="label" fill="#333" font-family="IBM Plex Sans, sans-serif" font-size="10.096" font-weight="normal" linespacing="14.423"><tspan x="3.783" y="13.327">10 minutes</tspan></text></g></g></g><g id="components/chart-types/interval-time/ic-interval-normal" transform="translate(69.230769, 0.000000)"><g id="interval"><g><rect id="Rectangle-17" width="57.692" height="23.077" x="0" y="0" fill="#FFF" opacity="0" rx="2.885"/><text id="label" fill="#333" font-family="IBM Plex Sans, sans-serif" font-size="10.096" font-weight="normal" linespacing="14.423"><tspan x="3.783" y="13.327">15 minutes</tspan></text></g></g></g><g id="components/chart-types/interval-time/ic-interval-active" transform="translate(138.461538, 0.000000)"><g id="components/chart-types/interval-time/ic-interval-normal"><g id="interval"><rect id="Rectangle-17" width="56.971" height="22.356" x=".361" y=".361" fill="#FFF" fill-rule="nonzero" stroke="#85ACB0" stroke-width=".721" rx="2.885"/><text id="label" fill="#333" font-family="IBM Plex Sans, sans-serif" font-size="10.096" font-weight="bold" linespacing="14.423"><tspan x="2.5" y="14.5">30 minutes</tspan></text></g></g></g><g id="components/chart-types/interval-time/ic-interval-normal" transform="translate(207.692308, 0.000000)"><g id="interval"><g><rect id="Rectangle-17" width="57.692" height="23.077" x="0" y="0" fill="#FFF" opacity="0" rx="2.885"/><text id="label" fill="#333" font-family="IBM Plex Sans, sans-serif" font-size="10.096" font-weight="normal" linespacing="14.423"><tspan x="14.611" y="13.327">1 hour</tspan></text></g></g></g></g><g id="row-3" fill-rule="evenodd" stroke-width="1" transform="translate(5.769231, 98.076923)"><g id="components/chart-types/interval-time/ic-interval-normal"><g id="interval"><g><rect id="Rectangle-17" width="57.692" height="23.077" x="0" y="0" fill="#FFF" opacity="0" rx="2.885"/><text id="label" fill="#333" font-family="IBM Plex Sans, sans-serif" font-size="10.096" font-weight="normal" linespacing="14.423"><tspan x="12.009" y="13.327">2 hours</tspan></text></g></g></g><g id="components/chart-types/interval-time/ic-interval-normal" transform="translate(69.230769, 0.000000)"><g id="interval"><g><rect id="Rectangle-17" width="57.692" height="23.077" x="0" y="0" fill="#FFF" opacity="0" rx="2.885"/><text id="label" fill="#333" font-family="IBM Plex Sans, sans-serif" font-size="10.096" font-weight="normal" linespacing="14.423"><tspan x="12.009" y="13.327">4 hours</tspan></text></g></g></g><g id="components/chart-types/interval-time/ic-interval-normal" transform="translate(138.461538, 0.000000)"><g id="interval"><g><rect id="Rectangle-17" width="57.692" height="23.077" x="0" y="0" fill="#FFF" opacity="0" rx="2.885"/><text id="label" fill="#333" font-family="IBM Plex Sans, sans-serif" font-size="10.096" font-weight="normal" linespacing="14.423"><tspan x="12.009" y="13.327">8 hours</tspan></text></g></g></g><g id="components/chart-types/interval-time/ic-interval-normal" transform="translate(207.692308, 0.000000)"><g id="interval"><g><rect id="Rectangle-17" width="57.692" height="23.077" x="0" y="0" fill="#FFF" opacity="0" rx="2.885"/><text id="label" fill="#333" font-family="IBM Plex Sans, sans-serif" font-size="10.096" font-weight="normal" linespacing="14.423"><tspan x="16.781" y="13.327">1 day</tspan></text></g></g></g></g></g></g><g id="chart-types" fill="none" fill-rule="evenodd" stroke="none" stroke-width="1" mask="url(#mask-17)"><g id="area" transform="translate(17.307692, 40.384615)"><rect id="bg" width="56.971" height="56.971" x=".361" y=".361" fill="#FFF" fill-rule="nonzero" stroke="#85ACB0" stroke-width=".721" rx="2.885"/><g id="icons/chart-toolbar/chart-types/ic-mountain-coloured" fill="#85ACB0" fill-opacity=".4" stroke="#85ACAF" transform="translate(20.192308, 8.653846)"><g id="ic-mountain" transform="translate(1.081731, 2.524038)"><path id="Path-2" fill-rule="nonzero" stroke-width=".721" d="M14.4230769,0.721153846 L7.21153846,7.21153846 L5.04807692,5.04807692 L0.721153846,9.375 L0.721153846,11.5384615 L14.4230769,11.5384615 L14.4230769,0.721153846 Z"/></g></g><text id="Area" fill="#333" font-family="IBM Plex Sans, sans-serif" font-size="10.096" font-weight="bold" linespacing="14.423"><tspan x="18.173" y="43.615">Area</tspan></text></g><g id="candle" transform="translate(86.538462, 40.384615)"><rect id="bg" width="57.692" height="57.692" x="0" y="0" fill="#FFF" opacity="0" rx="2.885"/><g id="icons/chart-toolbar/chart-types/ic-candle-coloured" transform="translate(20.192308, 8.653846)"><g id="Group-Copy" stroke="#EC3F3F" transform="translate(10.456731, 2.884615)"><polygon id="Path-56" fill="#EC3F3F" stroke-width=".721" points="0 2.524 5.048 2.524 5.048 11.899 0 11.899"/><path id="Path-58" stroke-width=".721" d="M2.52403846,12.2596154 L2.52403846,14.4230769"/><path id="Path-57" stroke-width=".721" d="M2.52403846,2.16346154 L2.52403846,0"/></g><g id="Group-Copy-2" stroke="#4BB4B3" transform="translate(1.802885, 0.000000)"><polygon id="Path-56" fill="#4BB4B3" stroke-width=".721" points="0 2.524 5.048 2.524 5.048 11.899 0 11.899"/><path id="Path-58" stroke-width=".721" d="M2.52403846,12.2596154 L2.52403846,14.4230769"/><path id="Path-57" stroke-width=".721" d="M2.52403846,2.16346154 L2.52403846,0"/></g></g><text id="Candle" fill="#333" font-family="IBM Plex Sans, sans-serif" font-size="10.096" font-weight="normal" linespacing="14.423"><tspan x="13.283" y="43.615">Candle</tspan></text></g><g id="hollow" transform="translate(155.769231, 40.384615)"><rect id="bg" width="57.692" height="57.692" x="0" y="0" fill="#FFF" opacity="0" rx="2.885"/><g id="icons/chart-toolbar/chart-types/ic-hollow-coloured" transform="translate(20.192308, 8.653846)"><g id="Group-Copy" stroke="#EC3F3F" transform="translate(10.456731, 2.884615)"><polygon id="Path-56" stroke-width=".721" points="0 2.524 5.048 2.524 5.048 11.899 0 11.899"/><path id="Path-58" stroke-width=".721" d="M2.52403846,12.2596154 L2.52403846,14.4230769"/><path id="Path-57" stroke-width=".721" d="M2.52403846,2.16346154 L2.52403846,0"/></g><g id="Group-Copy-2" stroke="#4BB4B3" transform="translate(1.802885, 0.000000)"><polygon id="Path-56" stroke-width=".721" points="0 2.524 5.048 2.524 5.048 11.899 0 11.899"/><path id="Path-58" stroke-width=".721" d="M2.52403846,12.2596154 L2.52403846,14.4230769"/><path id="Path-57" stroke-width=".721" d="M2.52403846,2.16346154 L2.52403846,0"/></g></g><text id="Hollow" fill="#333" font-family="IBM Plex Sans, sans-serif" font-size="10.096" font-weight="normal" linespacing="14.423"><tspan x="13.246" y="43.615">Hollow</tspan></text></g><g id="ohlc" transform="translate(225.000000, 40.384615)"><rect id="bg" width="57.692" height="57.692" x="0" y="0" opacity="0" rx="2.885"/><g id="icons/chart-toolbar/chart-types/ic-ohlc-coloured" transform="translate(20.192308, 8.653846)"><path id="Combined-Shape" fill="#4BB4B3" d="M5.40865385,0 L5.40830769,10.096 L8.65384615,10.0961538 L8.65384615,10.8173077 L5.40830769,10.817 L5.40865385,12.9807692 L4.6875,12.9807692 L4.68730769,4.326 L1.44230769,4.32692308 L1.44230769,3.60576923 L4.68730769,3.605 L4.6875,0 L5.40865385,0 Z" transform="translate(5.048077, 6.490385) scale(-1, 1) translate(-5.048077, -6.490385)"/><path id="Combined-Shape-Copy" fill="#EC3F3F" d="M12.6201923,4.32692308 L12.6198462,14.4229231 L15.8653846,14.4230769 L15.8653846,15.1442308 L12.6198462,15.1439231 L12.6201923,17.3076923 L11.8990385,17.3076923 L11.8988462,8.65292308 L8.65384615,8.65384615 L8.65384615,7.93269231 L11.8988462,7.93192308 L11.8990385,4.32692308 L12.6201923,4.32692308 Z"/></g><text id="OHLC" fill="#333" font-family="IBM Plex Sans, sans-serif" font-size="10.096" font-weight="normal" linespacing="14.423"><tspan x="16.135" y="43.615">OHLC</tspan></text></g><g id="components/pop-up/title"><g id="header"><rect id="bg-title" width="299.87" height="40.385" x="0" y="0" fill="#FFF" fill-rule="nonzero" opacity="0"/><rect id="bg-states" width="13.038" height="23.077" x="283.572" y="8.654" fill="#FFF" fill-rule="nonzero" opacity="0" rx="2.885"/><g id="icons/close/2px/ic-close-2px-light" fill="#333" transform="translate(276.692308, 14.423077)"><g id="vector" transform="translate(1.442308, 1.442308)"><path id="Combined-Shape" d="M8.44254538,0.211141379 C8.72421749,0.492725455 8.72428885,0.949334809 8.44270477,1.23100692 L5.346,4.328 L8.44270477,7.4250938 C8.72428885,7.7067659 8.72421749,8.16337526 8.44254538,8.44495933 C8.16087327,8.72654341 7.70426392,8.72647204 7.42267984,8.44479994 L4.327,5.348 L1.23116631,8.44479994 C0.949582238,8.72647204 0.492972883,8.72654341 0.211300776,8.44495933 C-0.070371332,8.16337526 -0.0704426962,7.7067659 0.211141379,7.4250938 L3.307,4.328 L0.211141379,1.23100692 C-0.0704426962,0.949334809 -0.070371332,0.492725455 0.211300776,0.211141379 C0.492972883,-0.0704426962 0.949582238,-0.070371332 1.23116631,0.211300776 L4.327,3.308 L7.42267984,0.211300776 C7.70426392,-0.070371332 8.16087327,-0.0704426962 8.44254538,0.211141379 Z"/></g></g><text id="title" fill="#333" font-family="IBM Plex Sans, sans-serif" font-size="11.538" font-weight="bold" linespacing="17.308"><tspan x="11.538" y="22.538">Chart types</tspan></text></g></g></g></g></g></g></g></g></g></g></svg>