<svg xmlns="http://www.w3.org/2000/svg" xmlns:xlink="http://www.w3.org/1999/xlink" width="328" height="200" aria-labelledby="malta-svg" role="img" version="1.1" viewBox="0 0 328 200"><title id="malta-svg">Malta</title><desc>Created with Sketch.</desc><g id="4-illustration/about_us/malta" fill="none" fill-rule="evenodd" stroke="none" stroke-width="1"><g id="icons/about-us/malta" stroke="#85ACB0" stroke-width="2" transform="translate(29.000000, 59.000000)"><g id="Group-21" transform="translate(0.269761, 0.952055)"><path id="Path-57" fill="#E7EEEF" d="M146.294471,66.3861301 L146.294471,62.8921233 L133.323075,62.8921233 L133.323075,68.1843504 L116.791862,68.1843504 C116.480875,67.7386467 115.957629,66.9728586 115.222124,65.8869863 C114.118867,64.2581778 113.329061,63.5694549 112.038124,62.8921233 C111.177499,62.4405689 110.019072,62.2741876 108.562842,62.3929795 L108.562842,41.9280822 L150.266222,41.9280822 L150.266222,65.8869863 L146.294471,66.3861301 Z"/><path id="Path-58" fill="#E7EEEF" d="M109.55578,41.4289384 C110.879697,35.1064498 112.700082,30.7805365 115.016937,28.4511986 C117.333791,26.1218607 120.147114,24.1252854 123.456906,22.4614726 L135.372158,22.4614726 C140.005866,24.7908105 142.81919,26.7873858 143.812127,28.4511986 C144.805065,30.1150114 146.62545,34.4409247 149.273284,41.4289384"/><polyline id="Path-59" fill="#E7EEEF" points="122.96 21.962 122.96 19.966 124.946 19.966 124.946 10.482 133.386 10.482 133.883 19.966 135.372 19.966 135.372 21.962"/><polyline id="Path-60" fill="#E7EEEF" points="125.939 10.482 128.422 6.988 129.415 0 130.407 6.988 132.393 10.482"/><path id="Path-62" d="M96.1511224,92.3416096 L96.1511224,70.3792808 L104.591092,70.3792808 C104.922071,65.3878425 106.576967,62.8921233 109.55578,62.8921233 C112.534593,62.8921233 114.685958,64.7223174 116.009874,68.3827055 L133.882751,68.3827055 L133.882751,62.8921233 L146.294471,62.8921233 L146.294471,93.3398973"/><polyline id="Path-61" fill="#E7EEEF" points="146.294 45.422 146.294 55.405 149.297 55.405"/><polyline id="Path-61-Copy" fill="#E7EEEF" points="142.819 45.422 142.819 55.405 145.459 55.405"/><polyline id="Path-61-Copy-2" fill="#E7EEEF" points="138.847 45.422 138.847 55.405 141.85 55.405"/><polyline id="Path-61-Copy-3" fill="#E7EEEF" points="135.869 45.422 135.869 55.405 137.87 55.405"/><polyline id="Path-61-Copy-4" fill="#E7EEEF" points="131.897 45.422 131.897 55.405 134.899 55.405"/><polyline id="Path-61-Copy-5" fill="#E7EEEF" points="127.925 45.422 127.925 55.405 130.927 55.405"/><polyline id="Path-61-Copy-6" fill="#E7EEEF" points="123.953 45.422 123.953 55.405 126.955 55.405"/><polyline id="Path-61-Copy-7" fill="#E7EEEF" points="119.982 45.422 119.982 55.405 122.984 55.405"/><polyline id="Path-61-Copy-8" fill="#E7EEEF" points="116.01 45.422 116.01 55.405 119.012 55.405"/><polyline id="Path-61-Copy-9" fill="#E7EEEF" points="112.038 45.422 112.038 55.405 115.096 55.405"/><polyline id="Path-61-Copy-10" points="108.066 45.422 108.066 55.405 112.038 55.405"/><polyline id="Path-63" points="23.667 92.342 23.667 73.873 86.71 73.873 86.71 93.34"/><polyline id="Path-64" points="76.789 73.873 76.789 64.39 58.916 64.39 58.916 55.904 36.078 55.904 36.078 59.897 29.128 59.897 29.128 73.873"/><polyline id="Path-65" fill="#E7EEEF" points="178.565 97.333 177.215 30.947 180.417 30.947 180.417 37.436 188.4 37.436 188.4 30.947 191.473 30.947 191.473 97.333"/><polyline id="Path-66" fill="#E7EEEF" points="180.993 37.436 180.993 25.955 182.609 25.955 182.609 19.467 183.687 19.467 183.687 4.492 184.765 4.492 184.765 19.467 186.381 19.467 186.381 25.955 187.998 25.955 187.998 37.436"/><polyline id="Path-67" points="178.565 85.853 167.643 85.853 167.643 72.376 161.189 72.376 161.189 66.386 146.294 66.386"/><polyline id="Path-68" points="150.266 46.92 160.196 46.92 160.196 55.405 178.565 55.405"/><path id="Path-69" d="M160.195598,50.4135274 L178.564943,50.4135274"/><polyline id="Path-71" points="96.151 50.414 90.193 50.414 90.193 47.918 67.852 48.417 67.852 53.408 61.398 53.408 47.497 52.41 45.015 52.41 45.015 49.415 29.128 48.417 29.128 52.41"/><polyline id="Path-74" points=".333 114.304 29.128 114.304 29.128 93.34 206.864 97.333 206.864 119.295"/><polyline id="Path-75" points="242.113 98.331 230.198 98.331 230.198 73.374 220.765 73.374 209.346 73.374 209.346 88.848 202.892 88.848 202.892 54.407 207.36 54.407 207.36 50.414 213.318 50.414 213.318 54.407 220.765 54.407 220.765 72.376"/><polyline id="Path-76" points="191.473 46.92 194.452 46.92 194.452 41.429 196.934 41.429 196.934 46.92 203.885 46.92 203.885 54.407"/><polyline id="Path-77" points="220.765 56.902 232.68 56.902 232.68 62.393 245.588 62.393 245.588 93.34"/><path id="Path-81" d="M14.730239,119.295377 L254.897022,119.295377"/><path id="Path-28-Copy" d="M145.798002,137.763699 C147.452898,135.767123 148.942305,134.768836 150.266222,134.768836 C152.252097,134.768836 152.748566,137.763699 155.23091,137.763699 C157.713254,137.763699 157.713254,134.768836 159.699129,134.768836 C161.685004,134.768836 162.944448,137.763699 165.160286,137.763699 C166.637511,137.763699 167.795938,136.765411 168.635567,134.768836"/><path id="Path-28-Copy" d="M155.727379,132.77226 C157.382275,130.775685 158.871681,129.777397 160.195598,129.777397 C162.181473,129.777397 162.677942,132.77226 165.160286,132.77226 C167.64263,132.77226 167.64263,129.777397 169.628505,129.777397 C171.61438,129.777397 172.873824,132.77226 175.089662,132.77226 C176.566887,132.77226 177.725314,131.773973 178.564943,129.777397"/></g></g></g></svg>