<svg xmlns="http://www.w3.org/2000/svg" xmlns:xlink="http://www.w3.org/1999/xlink" width="328" height="200" aria-labelledby="paraguay-svg" role="img" version="1.1" viewBox="0 0 328 200"><title id="paraguay-svg">Paraguay</title><desc>Created with Sketch.</desc><g id="4-illustration/about_us/paraguay" fill="none" fill-rule="evenodd" stroke="none" stroke-width="1"><g id="icons/about-us/paraguay" stroke="#85ACB0" stroke-width="2" transform="translate(56.000000, 54.000000)"><rect id="Rectangle" width="23.017" height="54.902" x="27.446" y="37.902"/><rect id="Rectangle" width="23.017" height="50.909" x="27.446" y="41.896" fill="#E7EEEF"/><rect id="Rectangle" width="4.004" height="1" x="105.5" y="37.902"/><rect id="Rectangle" width="67.048" height="40.926" x="73.478" y="51.878" fill="#E7EEEF"/><ellipse id="Oval" cx="107.502" cy="66.851" fill="#FFF" rx="5.003" ry="4.991"/><rect id="Rectangle" width="3.003" height="28.947" x="76.48" y="62.86" fill="#EFEFFF"/><polygon id="Path-51" points="75.48 61.86 80.484 61.86 81.935 58.598 73.938 58.598"/><rect id="Rectangle" width="3.003" height="28.947" x="92.063" y="62.86" fill="#EFEFFF"/><polygon id="Path-51" points="92.032 61.86 97.036 61.86 98.487 58.598 90.491 58.598"/><rect id="Rectangle" width="3.003" height="28.947" x="119.05" y="62.86" fill="#EFEFFF"/><polygon id="Path-51" points="118.05 61.86 123.054 61.86 124.505 58.598 116.509 58.598"/><rect id="Rectangle" width="3.003" height="28.947" x="134.092" y="62.86" fill="#EFEFFF"/><rect id="Rectangle-Copy-8" width="6.006" height="9.979" x="104.5" y="82.825" fill="#FFF"/><polygon id="Path-51" points="133.133 62.126 138.137 62.126 139.588 58.865 131.591 58.865"/><polygon id="Path-83" fill="#FFF" points="27.101 37.557 24.239 33.786 53.703 33.786 51.463 37.557"/><path id="Path-84" fill="#FFF" d="M36.2693886,56.2955875 L41.6029114,56.2955875 L41.6029114,47.2338046 C40.7477093,45.9180828 39.87047,45.2602218 38.9711935,45.2602218 C38.071917,45.2602218 37.1713154,45.9180828 36.2693886,47.2338046 L36.2693886,56.2955875 Z"/><polyline id="Path-85" fill="#FFF" points="79.58 47.033 79.58 43.278 75.48 43.278 75.48 49.389"/><path id="Path-86" fill="#FFF" d="M76.6539264,35.9041096 L76.6539264,37.9423208 C75.871424,38.2393699 75.4801728,38.8753814 75.4801728,39.8503551 C75.4801728,41.3128156 76.5052019,43.277733 77.530231,43.277733 C78.5552602,43.277733 79.5802893,41.2498196 79.5802893,39.8503551 C79.5802893,38.4508905 78.3302521,37.9423208 78.3302521,37.9423208 C78.3302521,37.9423208 78.3302521,37.262917 78.3302521,35.9041096 L76.6539264,35.9041096 Z"/><path id="Path-87" fill="#E7EEEF" d="M29.5205003,33.0137627 L46.832869,33.0137627 L46.832869,24.9708651 C45.8654851,22.3474572 45.0315726,20.6678694 44.3311317,19.9321017 C43.6306907,19.1963341 42.512002,18.3629929 40.9750656,17.4320782 L40.9750656,13.9417808 L36.0783987,13.9417808 L36.0783987,17.4320782 C34.3755374,18.2495682 33.1236687,19.0829094 32.3227925,19.9321017 C31.5219163,20.7812941 30.587819,22.2657966 29.5205003,24.3856092 L29.5205003,33.0137627 Z"/><rect id="Rectangle" width="3.003" height="1" x="37.025" y="10.949" fill="#D8D8D8"/><polyline id="Path-88" fill="#D8D8D8" points="38.527 .964 38.527 4.218 38.527 10.947"/><polyline id="Path-88" fill="#D8D8D8" points="38.527 .957 38.527 2.914 38.527 6.961" transform="translate(38.526755, 3.958904) rotate(90.000000) translate(-38.526755, -3.958904)"/><rect id="Rectangle" width="23.017" height="54.902" x="163.746" y="37.902" fill="#FFF"/><rect id="Rectangle" width="23.017" height="50.909" x="163.746" y="41.896" fill="#E7EEEF"/><polygon id="Path-83" fill="#FFF" points="163.401 37.557 160.539 33.786 190.003 33.786 187.763 37.557"/><path id="Path-84" fill="#FFF" d="M172.569293,56.2955875 L177.902816,56.2955875 L177.902816,47.2338046 C177.047614,45.9180828 176.170375,45.2602218 175.271098,45.2602218 C174.371822,45.2602218 173.47122,45.9180828 172.569293,47.2338046 L172.569293,56.2955875 Z"/><rect id="Rectangle" width="3.003" height="1" x="174.12" y="10.949" fill="#D8D8D8"/><polyline id="Path-88" fill="#D8D8D8" points="175.622 .964 175.622 4.218 175.622 10.947"/><polyline id="Path-88" fill="#D8D8D8" points="175.622 .957 175.622 2.914 175.622 6.961" transform="translate(175.621960, 3.958904) rotate(90.000000) translate(-175.621960, -3.958904)"/><polyline id="Path-88" fill="#D8D8D8" points="107.502 24.923 107.502 28.828 107.502 36.902"/><polyline id="Path-88" fill="#D8D8D8" points="107.502 25.415 107.502 27.372 107.502 31.419" transform="translate(107.502410, 28.416952) rotate(90.000000) translate(-107.502410, -28.416952)"/><polygon id="Path-89" fill="#E7EEEF" points="50.555 92.807 73.252 92.807 73.252 66.933 68.815 66.933 66.827 60.891 58.348 60.891 56.035 66.933 50.555 66.933"/><polygon id="Path-90" fill="#FFF" points="59.469 60.891 61.903 57.554 61.971 56.296 63.372 56.296 63.372 57.554 65.888 60.891"/><polygon id="Path-89" fill="#E7EEEF" points="141.098 92.807 163.795 92.807 163.795 66.933 159.358 66.933 157.37 60.891 148.891 60.891 146.578 66.933 141.098 66.933"/><polygon id="Path-90" fill="#FFF" points="150.012 60.891 152.446 57.554 152.514 56.296 153.915 56.296 153.915 57.554 156.431 60.891"/><ellipse id="Oval" cx="152.534" cy="85.818" fill="#FFF" rx="3.002" ry="2.995"/><ellipse id="Oval" cx="62.471" cy="85.818" fill="#FFF" rx="3.002" ry="2.995"/><polyline id="Path-85" fill="#FFF" points="139.622 47.033 139.622 43.278 135.522 43.278 135.522 49.389" transform="translate(137.571927, 46.333293) scale(-1, 1) translate(-137.571927, -46.333293)"/><path id="Path-86" fill="#FFF" d="M136.695622,35.9041096 L136.695622,37.9423208 C135.91312,38.2393699 135.521868,38.8753814 135.521868,39.8503551 C135.521868,41.3128156 136.546898,43.277733 137.571927,43.277733 C138.596956,43.277733 139.621985,41.2498196 139.621985,39.8503551 C139.621985,38.4508905 138.371948,37.9423208 138.371948,37.9423208 C138.371948,37.9423208 138.371948,37.262917 138.371948,35.9041096 L136.695622,35.9041096 Z" transform="translate(137.571927, 39.590921) scale(-1, 1) translate(-137.571927, -39.590921)"/><path id="Path-82" fill="#E7EEEF" d="M75.4801728,49.3888529 C82.3829314,43.2737594 93.0314841,40.2162127 107.425831,40.2162127 C121.820178,40.2162127 132.552229,43.2737594 139.621985,49.3888529 L143.099375,53.0375569 L71.599722,53.0375569 L75.4801728,49.3888529 Z"/><g id="Group-8" transform="translate(42.029187, 97.797945)"><rect id="Rectangle" width="3.003" height="22.957" x="1.969" y="3.96" fill="#FFF"/><polygon id="Path-91" points="2.036 2.96 4.982 2.96 6.953 0 0 0"/></g><g id="Group-8" transform="translate(165.114663, 97.797945)"><rect id="Rectangle" width="3.003" height="22.957" x="1.969" y="3.96" fill="#E7EEEF"/><polygon id="Path-91" points="2.036 2.96 4.982 2.96 6.953 0 0 0"/></g><g id="Group-7" transform="translate(181.125782, 97.797945)"><rect id="Rectangle" width="3.003" height="22.957" x="1.969" y="3.96" fill="#E7EEEF"/><polygon id="Path-91" points="2.036 2.96 4.982 2.96 6.953 0 0 0"/></g><g id="Group-8" transform="translate(133.092425, 97.797945)"><rect id="Rectangle" width="3.003" height="22.957" x="1.969" y="3.96" fill="#E7EEEF"/><polygon id="Path-91" points="2.036 2.96 4.982 2.96 6.953 0 0 0"/></g><g id="Group-8" transform="translate(117.081306, 97.797945)"><rect id="Rectangle" width="3.003" height="22.957" x="1.969" y="3.96" fill="#E7EEEF"/><polygon id="Path-91" points="2.036 2.96 4.982 2.96 6.953 0 0 0"/></g><g id="Group-7" transform="translate(149.103544, 97.797945)"><rect id="Rectangle" width="3.003" height="22.957" x="1.969" y="3.96" fill="#E7EEEF"/><polygon id="Path-91" points="2.036 2.96 4.982 2.96 6.953 0 0 0"/></g><g id="Group-8" transform="translate(74.051425, 97.797945)"><rect id="Rectangle" width="3.003" height="22.957" x="1.969" y="3.96" fill="#E7EEEF"/><polygon id="Path-91" points="2.036 2.96 4.982 2.96 6.953 0 0 0"/></g><g id="Group-8" transform="translate(58.040306, 97.797945)"><rect id="Rectangle" width="3.003" height="22.957" x="1.969" y="3.96" fill="#E7EEEF"/><polygon id="Path-91" points="2.036 2.96 4.982 2.96 6.953 0 0 0"/></g><g id="Group-7" transform="translate(90.062543, 97.797945)"><rect id="Rectangle" width="3.003" height="22.957" x="1.969" y="3.96" fill="#E7EEEF"/><polygon id="Path-91" points="2.036 2.96 4.982 2.96 6.953 0 0 0"/></g><rect id="Rectangle" width="4.003" height="8.985" x="35.024" y="112.772"/><rect id="Rectangle" width="4.003" height="8.985" x="174.121" y="112.772"/><rect id="Rectangle" width="161.113" height="3.99" x="26.445" y="92.808" fill="#FFF"/><path id="Path-92" d="M0,125.250856 L215.848969,125.250856"/><path id="Path-93" fill="#85ACB0" d="M73.9383443,57.2338477 L140.617689,57.5007414"/><rect id="Rectangle" width="3.003" height="22.957" x="27.414" y="101.758" fill="#FFF"/><polygon id="Path-91" points="27.482 100.758 30.427 100.758 32.399 97.798 25.445 97.798"/><path id="Path-87" fill="#E7EEEF" d="M167.6164,33.0137627 L184.928769,33.0137627 L184.928769,24.9708651 C183.961385,22.3474572 183.127473,20.6678694 182.427032,19.9321017 C181.726591,19.1963341 180.607902,18.3629929 179.070966,17.4320782 L179.070966,13.9417808 L174.174299,13.9417808 L174.174299,17.4320782 C172.471437,18.2495682 171.219569,19.0829094 170.418692,19.9321017 C169.617816,20.7812941 168.683719,22.2657966 167.6164,24.3856092 L167.6164,33.0137627 Z" transform="translate(176.272585, 23.477772) scale(-1, 1) translate(-176.272585, -23.477772)"/></g></g></svg>